<?xml version="1.0" encoding="utf-8"?>
<!-- Generator: Adobe Illustrator 16.0.4, SVG Export Plug-In . SVG Version: 6.00 Build 0)  -->
<!DOCTYPE svg PUBLIC "-//W3C//DTD SVG 1.1//EN" "http://www.w3.org/Graphics/SVG/1.1/DTD/svg11.dtd">
<svg version="1.1" id="Calque_1" xmlns="http://www.w3.org/2000/svg" xmlns:xlink="http://www.w3.org/1999/xlink" x="0px" y="0px"
	 width="198.426px" height="85.039px" viewBox="0 0 198.426 85.039" enable-background="new 0 0 198.426 85.039"
	 xml:space="preserve">
<path d="M101.27,16.742c0-0.285,0.088-0.516,0.267-0.695c0.18-0.177,0.41-0.267,0.696-0.267h1.924c0.287,0,0.517,0.09,0.697,0.267
	c0.178,0.179,0.267,0.41,0.267,0.695v17.834c0,0.819-0.277,1.505-0.83,2.057c-0.552,0.554-1.24,0.829-2.058,0.829h9.626
	c0.285,0,0.518,0.09,0.693,0.269c0.179,0.178,0.271,0.41,0.271,0.695v1.925c0,0.286-0.092,0.517-0.271,0.695
	c-0.176,0.18-0.408,0.268-0.693,0.268h-7.702c-0.82,0-1.507-0.275-2.059-0.83c-0.553-0.553-0.828-1.238-0.828-2.059V16.742z"/>
<path d="M119.104,41.313c-0.285,0-0.517-0.088-0.694-0.268c-0.178-0.178-0.269-0.409-0.269-0.695V16.742
	c0-0.285,0.091-0.516,0.269-0.695c0.178-0.177,0.409-0.267,0.694-0.267h1.926c0.285,0,0.517,0.09,0.696,0.267
	c0.177,0.179,0.269,0.41,0.269,0.695v23.609c0,0.286-0.092,0.517-0.269,0.695c-0.18,0.18-0.411,0.268-0.696,0.268H119.104z"/>
<path d="M109.934,44.6c0.819,0,1.508,0.275,2.059,0.826c0.555,0.556,0.83,1.241,0.83,2.062v3.438c0,0.285-0.092,0.516-0.268,0.694
	c-0.179,0.179-0.411,0.268-0.696,0.268h-1.925c-0.286,0-0.518-0.089-0.695-0.268c-0.179-0.179-0.266-0.409-0.266-0.694v-1.513
	c0-0.284-0.092-0.518-0.27-0.697c-0.18-0.177-0.411-0.267-0.695-0.267h-5.775c0.817,0,1.506,0.277,2.058,0.829
	c0.553,0.555,0.83,1.238,0.83,2.061v3.138c0,0.286,0.088,0.518,0.268,0.695c0.178,0.181,0.41,0.27,0.695,0.27h3.851
	c0.819,0,1.508,0.274,2.059,0.828c0.555,0.552,0.83,1.239,0.83,2.059v8.916c0,0.819-0.275,1.505-0.83,2.059
	c-0.551,0.553-1.239,0.828-2.059,0.828h-5.777c-0.82,0-1.507-0.275-2.059-0.828c-0.553-0.554-0.828-1.239-0.828-2.059v-3.441
	c0-0.282,0.088-0.516,0.267-0.694c0.18-0.178,0.41-0.269,0.696-0.269h1.924c0.286,0,0.52,0.091,0.695,0.269
	c0.18,0.179,0.269,0.412,0.269,0.694v1.516c0,0.286,0.088,0.518,0.268,0.695c0.178,0.179,0.41,0.267,0.695,0.267h1.925
	c0.284,0,0.516-0.088,0.695-0.267c0.178-0.178,0.27-0.409,0.27-0.695v-5.063c0-0.286-0.092-0.518-0.27-0.695
	c-0.18-0.18-0.411-0.268-0.695-0.268h-3.852c-0.82,0-1.507-0.278-2.059-0.83c-0.553-0.553-0.828-1.238-0.828-2.061v-8.914
	c0-0.82,0.275-1.506,0.828-2.062c0.552-0.551,1.238-0.826,2.059-0.826H109.934z"/>
<path d="M119.142,70.131c-0.283,0-0.515-0.086-0.693-0.268c-0.177-0.177-0.267-0.409-0.267-0.695V49.413
	c0-0.284-0.091-0.518-0.269-0.697c-0.179-0.177-0.41-0.267-0.696-0.267h-1.923c-0.285,0-0.518-0.088-0.696-0.267
	c-0.181-0.179-0.268-0.409-0.268-0.695v-1.925c0-0.286,0.087-0.518,0.268-0.697c0.179-0.177,0.411-0.266,0.696-0.266h9.625
	c0.286,0,0.516,0.089,0.696,0.266c0.177,0.18,0.27,0.411,0.27,0.697v1.925c0,0.286-0.093,0.517-0.27,0.695
	c-0.181,0.179-0.41,0.267-0.696,0.267h-5.777c0.821,0,1.507,0.277,2.06,0.829c0.553,0.555,0.83,1.238,0.83,2.061v17.829
	c0,0.286-0.089,0.519-0.267,0.695c-0.18,0.182-0.411,0.268-0.695,0.268H119.142z"/>
<path d="M92.978,70.107c-0.173,0-0.31-0.141-0.31-0.312V16.091c0-0.173,0.137-0.312,0.31-0.312s0.312,0.138,0.312,0.312v53.705
	C93.289,69.967,93.15,70.107,92.978,70.107z"/>
<g>
	<path fill="#50ADC9" d="M173.732,64.827c-0.629,0.358-1.278,0.694-1.943,1.009c-1.201,1.201-2.605,2.111-4.191,2.666
		c-1.166,0.407-2.369,0.602-3.593,0.602c-1.109,0-2.234-0.159-3.359-0.468c-0.62,0.036-1.233,0.055-1.846,0.055
		c-1.599,0-3.166-0.124-4.688-0.358c2.776,1.638,5.679,2.534,8.506,2.534c1.427,0,2.835-0.229,4.197-0.705
		C169.64,69.172,171.965,67.312,173.732,64.827 M152.447,63.774c-0.418,0.089-0.839,0.162-1.255,0.22
		c0.646,0.162,1.303,0.305,1.972,0.425C152.923,64.21,152.684,63.995,152.447,63.774 M144.42,58.592
		c0.815,1.272,1.688,2.466,2.605,3.568c0.106,0.003,0.215,0.004,0.321,0.004c1.049,0,2.116-0.118,3.193-0.349
		c-0.604-0.68-1.191-1.401-1.759-2.162C147.238,59.38,145.78,59.023,144.42,58.592 M143.65,57.333
		c0.099,0.169,0.199,0.337,0.3,0.503c1.314,0.422,2.744,0.771,4.267,1.037c-0.342-0.486-0.675-0.985-0.999-1.5
		c-0.515,0.025-1.018,0.037-1.511,0.037C144.999,57.41,144.312,57.385,143.65,57.333 M177.426,54.91
		c-0.303,0.186-0.611,0.367-0.931,0.544c-0.236,1.546-0.594,3.006-1.07,4.355c0.38-0.266,0.751-0.539,1.11-0.82
		C176.931,57.697,177.229,56.333,177.426,54.91 M139.851,48.599c0.165,0.546,0.344,1.094,0.535,1.641
		c0.735,2.108,1.621,4.101,2.622,5.953c0.9,0.1,1.861,0.149,2.875,0.149c0.231,0,0.466-0.003,0.703-0.009
		c-0.867-1.479-1.661-3.063-2.363-4.735C142.617,50.745,141.148,49.737,139.851,48.599 M177.476,46.475
		c-0.269,0.294-0.547,0.584-0.835,0.865c0.259,2.518,0.246,4.941-0.021,7.202c0.315-0.179,0.623-0.361,0.921-0.548
		C177.796,51.612,177.779,49.083,177.476,46.475 M141.401,41.318c-1.011,0.812-1.916,1.633-2.702,2.454
		c0.015,0.081,0.028,0.16,0.044,0.24c1.104,1.152,2.412,2.181,3.882,3.062C142.062,45.132,141.656,43.203,141.401,41.318
		 M174.944,37.245c-0.074,0.444-0.155,0.89-0.249,1.338c0.613,1.793,1.089,3.584,1.435,5.347c0.278-0.262,0.544-0.529,0.802-0.803
		c-0.354-1.703-0.831-3.424-1.432-5.146c-0.073-0.208-0.146-0.417-0.223-0.623C175.167,37.32,175.055,37.282,174.944,37.245
		 M141.726,30.348c-1.246,1.001-2.367,2.102-3.342,3.284c-0.274,2.233-0.31,4.608-0.09,7.06c0.849-0.696,1.802-1.36,2.849-1.985
		C140.958,35.725,141.161,32.896,141.726,30.348 M171.739,30.108c-0.342,0.01-0.687,0.026-1.037,0.047
		c0.61,0.973,1.193,1.996,1.734,3.063c0.048-0.61,0.072-1.214,0.079-1.811C172.265,30.966,172.004,30.534,171.739,30.108
		 M166.738,25.005c0.974,1.031,1.907,2.168,2.788,3.4c0.35-0.025,0.693-0.044,1.036-0.059c-0.75-1.055-1.54-2.044-2.365-2.966
		C167.718,25.244,167.23,25.118,166.738,25.005 M148.007,18.442c-3.194,1.324-5.69,3.913-7.371,7.321
		C142.812,22.8,145.329,20.33,148.007,18.442 M153.041,17.454c-1.084,0-2.156,0.126-3.209,0.387
		c-3.793,2.302-7.39,5.865-10.225,10.398c-0.471,1.362-0.831,2.821-1.075,4.349c1.021-1.125,2.159-2.171,3.405-3.121
		c1.344-5.146,4.223-9.017,8.371-10.466c1.161-0.406,2.366-0.601,3.588-0.601c4.042,0,8.306,2.128,12.056,5.803
		c0.493,0.1,0.982,0.212,1.463,0.335C163.104,20.068,157.968,17.454,153.041,17.454"/>
	<path fill="#50ADC9" d="M163.512,53.637c-0.159,0.061-0.315,0.122-0.476,0.182c-0.646,0.24-1.289,0.468-1.928,0.684
		c0.634-0.079,1.261-0.177,1.881-0.294C163.164,54.021,163.339,53.831,163.512,53.637 M142.625,47.074
		c0.207,0.714,0.436,1.428,0.684,2.144c0.285,0.811,0.589,1.604,0.914,2.38c3.708,1.967,8.146,3.111,12.907,3.14
		c1.88-0.493,3.811-1.101,5.761-1.823c0.624-0.231,1.234-0.473,1.84-0.719c0.754-0.943,1.475-1.944,2.151-3
		c-2.442,0.787-5.103,1.292-7.904,1.461c-0.691,0.043-1.379,0.063-2.059,0.063C151.478,50.72,146.487,49.396,142.625,47.074
		 M176.584,46.821c-2.077,1.494-4.479,2.921-7.113,4.227c-0.363,0.551-0.736,1.085-1.12,1.606c3.218-1.286,6.041-3.112,8.29-5.314
		C176.624,47.169,176.604,46.993,176.584,46.821 M178.322,45.49c-0.286,0.232-0.581,0.464-0.881,0.694
		c0.011,0.097,0.023,0.194,0.034,0.29C177.77,46.153,178.051,45.824,178.322,45.49 M176.13,43.93
		c-1.267,1.193-2.747,2.263-4.395,3.179c-0.191,0.388-0.392,0.774-0.6,1.16c-0.231,0.427-0.468,0.844-0.712,1.257
		c2.244-1.206,4.268-2.497,6.01-3.821C176.348,45.115,176.246,44.525,176.13,43.93 M138.607,43.869
		c-0.567,0.6-1.07,1.195-1.505,1.788c0.796,1.054,1.719,2.04,2.748,2.941c-0.468-1.538-0.836-3.072-1.107-4.587
		C138.696,43.964,138.652,43.917,138.607,43.869 M179.571,39.417c-0.678,1.324-1.566,2.567-2.64,3.709
		c0.133,0.642,0.248,1.281,0.349,1.916c1.315-1.063,2.45-2.143,3.369-3.213c0.188-0.386,0.358-0.776,0.515-1.173
		C180.692,40.219,180.16,39.806,179.571,39.417 M135.398,38.533c-0.227,0.545-0.428,1.1-0.6,1.664
		c-0.062,0.311-0.119,0.622-0.172,0.932c0.282,0.781,0.624,1.541,1.022,2.275c0.395-0.528,0.85-1.046,1.358-1.552
		C136.322,40.816,135.78,39.707,135.398,38.533 M181.056,33.929c-0.062,1.233-0.293,2.427-0.68,3.574
		c0.525,0.349,1.009,0.717,1.45,1.103c0.229-0.907,0.38-1.834,0.445-2.776C181.908,35.176,181.501,34.541,181.056,33.929 M181,31.88
		c0.02,0.189,0.034,0.38,0.045,0.57c0.011,0.158,0.016,0.314,0.021,0.471c0.442,0.536,0.859,1.089,1.246,1.659
		c-0.003-0.277-0.011-0.557-0.027-0.836c-0.018-0.298-0.045-0.594-0.079-0.887C181.865,32.496,181.463,32.17,181,31.88
		 M169.889,17.937c0.337,0.314,0.659,0.646,0.964,0.993c4.988,2.428,8.613,6.335,9.799,11c0.399,0.196,0.771,0.41,1.112,0.641
		C180.271,25.037,175.838,20.491,169.889,17.937 M150.75,16.74c-10.328,2.804-17.589,10.886-17.04,19.947
		c0.061,1.01,0.217,1.998,0.46,2.956c0.148-0.39,0.307-0.777,0.479-1.158c0.113-0.461,0.238-0.924,0.374-1.387
		c-0.123-0.6-0.203-1.214-0.24-1.843c-0.457-7.519,5.388-14.311,13.995-17.338C149.429,17.49,150.086,17.098,150.75,16.74
		 M158.676,15.694c-0.615,0-1.233,0.019-1.858,0.057c-1.287,0.078-2.546,0.234-3.768,0.464c-0.76,0.309-1.516,0.669-2.267,1.079
		c1.92-0.519,3.954-0.858,6.068-0.986c0.628-0.039,1.255-0.057,1.873-0.057c2.882,0,5.64,0.408,8.174,1.153
		c-0.421-0.328-0.866-0.63-1.335-0.902C163.381,15.975,161.068,15.694,158.676,15.694"/>
	<path fill="#129DA9" d="M177.441,46.185c-0.28,0.213-0.564,0.425-0.857,0.637c0.02,0.172,0.04,0.348,0.057,0.519
		c0.288-0.281,0.566-0.571,0.835-0.865C177.465,46.379,177.452,46.281,177.441,46.185 M138.743,44.012
		c0.271,1.515,0.64,3.049,1.107,4.587c1.298,1.139,2.767,2.146,4.372,2.999c-0.325-0.775-0.629-1.569-0.914-2.38
		c-0.248-0.716-0.477-1.43-0.684-2.144C141.155,46.192,139.848,45.164,138.743,44.012 M176.932,43.126
		c-0.258,0.274-0.523,0.542-0.802,0.803c0.116,0.596,0.218,1.186,0.304,1.774c0.289-0.22,0.572-0.442,0.847-0.662
		C177.18,44.407,177.064,43.769,176.932,43.126"/>
	<path fill="#50ADC9" d="M181.826,38.606c-0.176,0.695-0.396,1.38-0.662,2.05c0.084,0.077,0.166,0.155,0.245,0.233
		c0.42-0.561,0.78-1.118,1.074-1.665C182.275,39.013,182.056,38.808,181.826,38.606 M175.22,35.07
		c-0.048,0.54-0.113,1.083-0.193,1.628c0.086,0.219,0.17,0.438,0.251,0.66c1.636,0.571,3.083,1.263,4.294,2.06
		c0.315-0.621,0.587-1.259,0.805-1.914C178.933,36.542,177.191,35.723,175.22,35.07 M163.052,33.284
		c-1.856,0-3.773,0.108-5.72,0.332c-1.027,0.118-2.037,0.266-3.024,0.441c-3.846,1.53-7.304,3.344-10.187,5.272
		c3.688-1.705,8.265-2.971,13.321-3.529c1.88-0.208,3.727-0.307,5.517-0.307c3.259,0,6.33,0.33,9.057,0.942
		c0.135-0.728,0.241-1.45,0.322-2.165C169.525,33.63,166.38,33.284,163.052,33.284"/>
	<path fill="#129DA9" d="M175.026,36.698c-0.024,0.182-0.054,0.364-0.082,0.546c0.11,0.037,0.223,0.075,0.333,0.113
		C175.196,37.136,175.112,36.917,175.026,36.698"/>
	<path fill="#129DA9" d="M180.376,37.503c-0.218,0.655-0.489,1.293-0.805,1.914c0.589,0.389,1.121,0.802,1.593,1.238
		c0.266-0.67,0.486-1.354,0.662-2.05C181.385,38.22,180.901,37.853,180.376,37.503"/>
	<path fill="#50ADC9" d="M135.649,43.403c-0.635,0.846-1.12,1.718-1.439,2.603c0.002,0.408,0.012,0.813,0.032,1.211
		c0.406-1.01,1.019-2.05,1.815-3.098C135.916,43.883,135.779,43.644,135.649,43.403 M138.294,40.692
		c-0.461,0.377-0.89,0.764-1.286,1.159c0.141,0.213,0.287,0.423,0.441,0.63c0.294-0.315,0.604-0.63,0.931-0.945
		C138.348,41.253,138.319,40.973,138.294,40.692 M143.713,37.34c-0.908,0.431-1.767,0.888-2.57,1.367
		c0.009,0.145,0.019,0.291,0.031,0.436C141.967,38.532,142.815,37.93,143.713,37.34"/>
	<path fill="#129DA9" d="M141.143,38.707c-1.047,0.625-2,1.29-2.849,1.985c0.025,0.281,0.054,0.561,0.086,0.844
		c0.835-0.805,1.77-1.607,2.794-2.394C141.161,38.998,141.151,38.852,141.143,38.707"/>
	<path fill="#129DA9" d="M137.008,41.851c-0.509,0.506-0.964,1.024-1.358,1.552c0.13,0.24,0.267,0.479,0.408,0.716
		c0.415-0.545,0.879-1.092,1.392-1.638C137.295,42.274,137.148,42.064,137.008,41.851"/>
	<path fill="#50ADC9" d="M176.619,54.542c-3.784,2.144-8.832,3.766-14.438,4.504c-0.437,0.34-0.876,0.665-1.321,0.975
		c6.057-0.607,11.48-2.246,15.636-4.566C176.542,55.154,176.584,54.849,176.619,54.542 M183.246,40.095
		c-0.316,0.534-0.688,1.069-1.11,1.603c0.876,1.103,1.388,2.325,1.467,3.646c0.191,3.159-2.139,6.202-6.062,8.65
		c-0.035,0.309-0.072,0.614-0.114,0.916c2.962-1.812,5.188-3.992,6.406-6.393c0.488-1.759,0.696-3.596,0.583-5.472
		c-0.025-0.413-0.067-0.822-0.122-1.228C184.026,41.219,183.676,40.644,183.246,40.095"/>
	<path fill="#129DA9" d="M177.54,53.994c-0.298,0.187-0.605,0.369-0.921,0.548c-0.035,0.307-0.077,0.612-0.124,0.912
		c0.319-0.177,0.628-0.358,0.931-0.544C177.468,54.608,177.505,54.303,177.54,53.994"/>
	<path fill="#50ADC9" d="M148.217,58.873c0.186,0.265,0.375,0.525,0.564,0.78c1.948,0.344,4.029,0.552,6.205,0.603
		c0.492-0.238,0.981-0.5,1.468-0.781c-0.296,0.006-0.59,0.008-0.882,0.008C152.954,59.482,150.481,59.269,148.217,58.873
		 M139.915,56.687c1.329,0.734,2.842,1.375,4.505,1.905c-0.159-0.249-0.315-0.501-0.47-0.756c-0.651-0.21-1.273-0.436-1.866-0.681
		C141.318,57.04,140.594,56.884,139.915,56.687 M135.537,51.938c0.247,0.548,0.523,1.084,0.826,1.606
		c0.395,0.43,0.881,0.811,1.45,1.142C136.804,53.852,136.032,52.93,135.537,51.938"/>
	<path fill="#129DA9" d="M143.95,57.836c0.154,0.255,0.311,0.507,0.47,0.756c1.36,0.432,2.818,0.788,4.361,1.062
		c-0.189-0.255-0.379-0.516-0.564-0.78C146.694,58.606,145.265,58.258,143.95,57.836"/>
	<path fill="#C40050" d="M160.859,60.021c-0.668,0.066-1.342,0.121-2.024,0.162c-0.948,0.057-1.885,0.085-2.806,0.085
		c-0.349,0-0.697-0.004-1.043-0.012c-1.476,0.72-2.971,1.245-4.446,1.56c0.618,0.697,1.257,1.353,1.907,1.959
		C155.283,63.179,158.15,61.896,160.859,60.021 M175.425,59.81c-4.065,2.837-9.234,4.687-14.942,5.033
		c-0.639,0.038-1.274,0.058-1.902,0.058c-1.859,0-3.673-0.167-5.416-0.481c2.384,2.069,4.936,3.521,7.481,4.217
		c0.021-0.001,0.042-0.003,0.063-0.004c4.007-0.242,7.76-1.23,11.08-2.796C173.353,64.272,174.574,62.217,175.425,59.81
		 M134.17,39.643c-0.962,2.553-1.412,5.285-1.24,8.102c0.634,10.493,9.613,18.797,21.182,20.587
		c-2.516-1.485-4.929-3.58-7.086-6.172c-0.377-0.008-0.75-0.032-1.119-0.072c-3.151-1.526-5.841-3.609-7.859-6.101
		c0.575,0.273,1.2,0.506,1.868,0.699c-3.731-2.058-6.02-4.845-6.146-7.934c-0.037-0.922,0.115-1.842,0.441-2.747
		c-0.003-1.576,0.135-3.211,0.417-4.877C134.451,40.641,134.3,40.146,134.17,39.643 M172.437,33.218
		c-0.027,0.349-0.059,0.699-0.099,1.052c0.232,0.053,0.463,0.108,0.692,0.166C172.836,34.024,172.641,33.619,172.437,33.218
		 M181.764,30.57c0.202,0.745,0.35,1.508,0.441,2.287c0.421,0.45,0.742,0.954,0.949,1.514c0.232,0.628,0.307,1.299,0.248,1.999
		c-0.332-0.613-0.697-1.21-1.091-1.79c0.004,0.419-0.009,0.835-0.04,1.25c0.33,0.589,0.623,1.194,0.881,1.814
		c-0.158,0.516-0.382,1.043-0.669,1.58c0.274,0.282,0.531,0.572,0.763,0.871c0.176-0.291,0.333-0.582,0.476-0.872
		c0.256,0.843,0.449,1.709,0.571,2.595c0.344,0.774,0.55,1.589,0.601,2.441c0,1.472-0.369,2.9-1.062,4.258
		c-1.113,4.025-3.701,7.657-7.297,10.472c-0.667,2.182-1.607,4.153-2.803,5.838c7.662-4.366,12.537-11.956,12.031-20.281
		c-0.138-2.293-0.68-4.481-1.554-6.519c0.56-1.674,0.556-3.313-0.144-4.852C183.598,32.148,182.815,31.278,181.764,30.57
		 M169.526,28.405c-4.358,0.307-9.34,1.388-14.499,3.301c-4.264,1.581-8.105,3.525-11.314,5.634
		c3.041-1.44,6.639-2.582,10.595-3.283c0.459-0.182,0.924-0.36,1.393-0.535c5.358-1.988,10.57-3.103,15.002-3.367
		C170.321,29.553,169.928,28.969,169.526,28.405 M140.636,25.763c-0.98,1.336-1.892,2.774-2.718,4.303
		c-1.245,2.313-2.208,4.678-2.896,7.032c0.099,0.488,0.225,0.967,0.376,1.435c0.729-1.741,1.738-3.388,2.985-4.901
		c0.043-0.352,0.094-0.699,0.148-1.043c-1.01,1.114-1.903,2.308-2.663,3.564c0.648-1.948,1.488-3.904,2.525-5.826
		c0.386-0.717,0.791-1.413,1.213-2.087C139.906,27.374,140.25,26.547,140.636,25.763 M159.889,23.6c-0.631,0-1.265,0.02-1.903,0.058
		c-6.17,0.373-11.735,2.52-16.048,5.81c-0.075,0.288-0.146,0.583-0.212,0.88c4.239-3.407,9.934-5.662,16.297-6.048
		c0.643-0.039,1.281-0.058,1.915-0.058c2.356,0,4.637,0.266,6.801,0.763c-0.261-0.274-0.523-0.542-0.786-0.8
		C164.005,23.809,161.974,23.601,159.889,23.6 M166.898,17.404c2.592,2.019,4.305,5.086,5.103,8.736
		c-1.452-0.652-2.988-1.19-4.586-1.601c0.264,0.273,0.524,0.555,0.782,0.84c1.376,0.394,2.696,0.884,3.947,1.46
		c0.087,0.482,0.159,0.973,0.217,1.474c-0.1-0.001-0.201-0.001-0.303-0.001c-0.488,0-0.987,0.011-1.496,0.033
		c0.404,0.569,0.797,1.156,1.177,1.762c0.256-0.007,0.508-0.012,0.758-0.014c0.017,0.433,0.023,0.872,0.019,1.313
		c0.611,1.069,1.18,2.187,1.702,3.35c0.34,0.1,0.673,0.204,1.002,0.312c0.154-1.665,0.162-3.293,0.034-4.86
		c1.029,0.098,1.979,0.26,2.847,0.484c1.115,0.989,2.104,2.072,2.955,3.235c0.016-0.333,0.02-0.669,0.01-1.007
		c-0.527-0.637-1.094-1.249-1.695-1.832c0.603,0.226,1.146,0.489,1.63,0.791c-0.069-0.664-0.187-1.314-0.349-1.951
		c-1.191-0.588-2.621-1.019-4.244-1.288c-0.487-0.342-0.988-0.67-1.502-0.981c-0.647-3.403-2.011-6.413-4.053-8.73
		C169.613,18.327,168.289,17.814,166.898,17.404 M150.783,17.293c-0.683,0.185-1.352,0.393-2.006,0.624
		c-0.258,0.169-0.515,0.344-0.771,0.525c0.215-0.089,0.434-0.172,0.654-0.25c0.387-0.136,0.778-0.252,1.171-0.35
		C150.147,17.651,150.466,17.468,150.783,17.293 M160.172,14.173c-3.091,0-6.318,0.898-9.422,2.567
		c0.752-0.203,1.519-0.379,2.3-0.526c2.129-0.867,4.272-1.325,6.331-1.325c2.1,0,4.11,0.474,5.938,1.475
		c0.082,0.045,0.164,0.091,0.245,0.138c1.511,0.365,2.958,0.847,4.325,1.435c-0.842-0.791-1.78-1.476-2.814-2.041
		C164.942,14.727,162.599,14.173,160.172,14.173"/>
	<path fill="#523050" d="M150.54,61.815c-1.077,0.23-2.145,0.349-3.193,0.349c-0.106,0-0.215-0.001-0.321-0.004
		c2.157,2.592,4.57,4.687,7.086,6.172c1.522,0.234,3.09,0.358,4.688,0.358c0.612,0,1.226-0.019,1.846-0.055
		c-2.546-0.695-5.098-2.147-7.481-4.217c-0.669-0.12-1.325-0.263-1.972-0.425c0.416-0.058,0.837-0.131,1.255-0.22
		C151.797,63.168,151.158,62.513,150.54,61.815 M176.535,58.989c-0.359,0.281-0.73,0.555-1.11,0.82
		c-0.851,2.407-2.072,4.463-3.636,6.026c0.665-0.314,1.314-0.65,1.943-1.009C174.928,63.143,175.868,61.171,176.535,58.989
		 M172.516,31.408c-0.007,0.596-0.031,1.2-0.079,1.811c0.204,0.4,0.399,0.806,0.594,1.218c0.402,0.102,0.8,0.209,1.188,0.321
		C173.695,33.595,173.127,32.477,172.516,31.408 M141.938,29.468c-1.246,0.95-2.385,1.996-3.405,3.121
		c-0.055,0.345-0.105,0.692-0.148,1.043c0.975-1.182,2.096-2.283,3.342-3.284C141.792,30.051,141.862,29.756,141.938,29.468
		 M170.562,28.346c-0.343,0.014-0.687,0.034-1.036,0.059c0.401,0.564,0.795,1.148,1.176,1.75c0.351-0.021,0.695-0.037,1.037-0.047
		C171.359,29.502,170.967,28.915,170.562,28.346 M165.952,24.205c0.263,0.258,0.525,0.526,0.786,0.8
		c0.492,0.113,0.979,0.239,1.459,0.375c-0.258-0.286-0.519-0.567-0.782-0.84C166.935,24.417,166.445,24.305,165.952,24.205
		 M149.832,17.841c-0.393,0.098-0.784,0.214-1.171,0.35c-0.221,0.078-0.439,0.161-0.654,0.25c-2.678,1.888-5.195,4.358-7.371,7.321
		c-0.386,0.785-0.729,1.611-1.028,2.477C142.442,23.706,146.039,20.143,149.832,17.841"/>
	<path fill="#523050" d="M135.022,37.098c-0.136,0.462-0.261,0.925-0.374,1.387c-0.172,0.381-0.33,0.768-0.479,1.158
		c0.13,0.503,0.281,0.998,0.457,1.485c0.053-0.31,0.109-0.621,0.172-0.932c0.172-0.563,0.373-1.119,0.6-1.664
		C135.247,38.065,135.121,37.586,135.022,37.098 M181.065,32.922c0.01,0.338,0.006,0.674-0.01,1.007
		c0.445,0.612,0.853,1.247,1.216,1.901c0.031-0.414,0.044-0.83,0.04-1.25C181.925,34.011,181.508,33.458,181.065,32.922
		 M180.651,29.929c0.162,0.637,0.279,1.287,0.349,1.951c0.463,0.29,0.865,0.616,1.205,0.977c-0.092-0.779-0.239-1.542-0.441-2.287
		C181.422,30.339,181.051,30.125,180.651,29.929 M165.563,16.502c0.469,0.272,0.914,0.574,1.335,0.902
		c1.391,0.41,2.715,0.923,3.954,1.525c-0.305-0.347-0.627-0.679-0.964-0.993C168.521,17.35,167.074,16.867,165.563,16.502
		 M153.05,16.214c-0.781,0.147-1.548,0.323-2.3,0.526c-0.664,0.357-1.321,0.75-1.973,1.177c0.654-0.23,1.323-0.438,2.006-0.624
		C151.534,16.883,152.29,16.523,153.05,16.214"/>
	<path fill="#C40050" d="M137.813,54.687c1.139,0.942,2.58,1.774,4.271,2.469c0.505,0.076,1.027,0.136,1.566,0.178
		c-0.22-0.375-0.433-0.754-0.643-1.141C140.906,55.959,139.137,55.456,137.813,54.687 M161.108,54.502
		c-0.637,0.079-1.28,0.14-1.933,0.18c-0.625,0.037-1.246,0.057-1.862,0.057c-0.062,0-0.122-0.001-0.184-0.001
		c-3.804,0.998-7.402,1.527-10.544,1.596c0.207,0.353,0.417,0.699,0.632,1.04C151.352,57.176,156.124,56.19,161.108,54.502
		 M168.351,52.654c-1.687,0.674-3.483,1.199-5.361,1.554c-2.035,2.172-4.253,3.947-6.535,5.267c0.715-0.014,1.438-0.042,2.17-0.087
		c1.205-0.073,2.394-0.189,3.557-0.342C164.408,57.306,166.503,55.157,168.351,52.654 M181.409,40.889
		c-0.233,0.312-0.487,0.626-0.76,0.94c-0.619,1.286-1.402,2.511-2.327,3.662c1.52-1.239,2.808-2.513,3.813-3.792
		C181.918,41.421,181.674,41.151,181.409,40.889 M172.016,36.435c-0.626,3.388-1.846,6.894-3.679,10.298
		c-0.46,0.85-0.945,1.672-1.455,2.462c1.738-0.559,3.366-1.262,4.854-2.087c1.395-2.818,2.377-5.699,2.96-8.525
		c-0.032-0.098-0.065-0.196-0.102-0.294c-0.154-0.441-0.313-0.876-0.48-1.307C173.44,36.78,172.739,36.598,172.016,36.435"/>
	<path fill="#523050" d="M143.008,56.192c0.21,0.387,0.423,0.766,0.643,1.141c0.662,0.052,1.349,0.077,2.057,0.077
		c0.493,0,0.996-0.012,1.511-0.037c-0.215-0.341-0.425-0.688-0.632-1.04c-0.237,0.006-0.472,0.009-0.703,0.009
		C144.869,56.342,143.908,56.292,143.008,56.192 M174.113,36.981c0.167,0.431,0.326,0.866,0.48,1.307
		c0.036,0.099,0.069,0.196,0.102,0.294c0.094-0.448,0.175-0.894,0.249-1.338C174.672,37.153,174.396,37.066,174.113,36.981"/>
	<path fill="#523050" d="M176.434,45.704c-1.742,1.324-3.766,2.615-6.01,3.821c0.244-0.413,0.48-0.83,0.712-1.257
		c0.208-0.386,0.408-0.772,0.6-1.16c-1.487,0.825-3.115,1.528-4.854,2.087c-0.677,1.056-1.397,2.057-2.151,3
		c-0.605,0.246-1.216,0.487-1.84,0.719c-1.95,0.723-3.881,1.33-5.761,1.823c0.062,0,0.122,0.001,0.184,0.001
		c0.616,0,1.237-0.02,1.862-0.057c0.652-0.04,1.296-0.101,1.933-0.18c0.639-0.216,1.282-0.443,1.928-0.684
		c0.16-0.06,0.316-0.121,0.476-0.182c-0.173,0.194-0.348,0.385-0.522,0.571c1.878-0.354,3.675-0.88,5.361-1.554
		c0.384-0.521,0.757-1.056,1.12-1.606c2.634-1.306,5.036-2.732,7.113-4.227C176.54,46.45,176.489,46.077,176.434,45.704
		 M180.649,41.829c-0.919,1.07-2.054,2.15-3.369,3.213c0.059,0.382,0.111,0.763,0.161,1.143c0.3-0.23,0.595-0.462,0.881-0.694
		C179.247,44.34,180.03,43.114,180.649,41.829"/>
	<path fill="#3B334A" d="M177.28,45.042c-0.274,0.22-0.558,0.442-0.847,0.662c0.056,0.373,0.106,0.746,0.15,1.117
		c0.293-0.212,0.577-0.424,0.857-0.637C177.392,45.805,177.339,45.424,177.28,45.042"/>
	<path fill="#C40050" d="M136.551,44.889c-1.126,1.489-1.715,3.062-1.649,4.638c0.035,0.84,0.252,1.646,0.636,2.412
		c-0.111-0.246-0.217-0.495-0.316-0.747c-0.248-1.672,0.438-3.57,1.882-5.534C136.911,45.405,136.728,45.147,136.551,44.889
		 M138.544,42.8c-0.17,0.146-0.334,0.294-0.494,0.442c0.18,0.212,0.365,0.422,0.558,0.626c0.03-0.032,0.061-0.064,0.092-0.098
		C138.644,43.447,138.592,43.123,138.544,42.8 M144.121,39.329c-0.996,0.46-1.927,0.953-2.785,1.472
		c0.02,0.171,0.042,0.344,0.065,0.517C142.236,40.646,143.147,39.981,144.121,39.329"/>
	<path fill="#523050" d="M141.336,40.801c-1.044,0.63-1.978,1.3-2.792,1.999c0.048,0.323,0.1,0.647,0.155,0.971
		c0.786-0.82,1.691-1.642,2.702-2.454C141.378,41.145,141.355,40.973,141.336,40.801"/>
	<path fill="#523050" d="M138.05,43.243c-0.571,0.535-1.073,1.084-1.499,1.646c0.177,0.259,0.36,0.517,0.552,0.769
		c0.435-0.593,0.938-1.188,1.505-1.788C138.415,43.665,138.229,43.455,138.05,43.243"/>
	<path fill="#523050" d="M136.058,44.119c-0.797,1.048-1.409,2.088-1.815,3.098c-0.021-0.397-0.03-0.803-0.032-1.211
		c-0.326,0.905-0.479,1.825-0.441,2.747c0.127,3.089,2.415,5.876,6.146,7.934c0.679,0.197,1.403,0.354,2.169,0.469
		c-1.69-0.694-3.132-1.526-4.271-2.469c-0.569-0.331-1.056-0.712-1.45-1.142c-0.303-0.522-0.579-1.059-0.826-1.606
		c-0.384-0.766-0.601-1.572-0.636-2.412c-0.065-1.576,0.523-3.148,1.649-4.638C136.38,44.635,136.216,44.379,136.058,44.119
		 M138.38,41.537c-0.326,0.314-0.637,0.629-0.931,0.945c0.19,0.258,0.391,0.512,0.601,0.761c0.16-0.148,0.324-0.296,0.494-0.442
		C138.481,42.378,138.427,41.955,138.38,41.537 M154.308,34.057c-3.956,0.702-7.554,1.843-10.595,3.283
		c-0.897,0.59-1.746,1.192-2.539,1.803c0.04,0.549,0.094,1.101,0.162,1.659c0.858-0.519,1.789-1.012,2.785-1.472
		C147.004,37.4,150.462,35.586,154.308,34.057"/>
	<path fill="#3B334A" d="M141.174,39.143c-1.024,0.787-1.959,1.589-2.794,2.394c0.047,0.418,0.102,0.841,0.164,1.264
		c0.814-0.699,1.748-1.369,2.792-1.999C141.268,40.243,141.214,39.691,141.174,39.143"/>
	<path fill="#3B334A" d="M137.449,42.481c-0.513,0.545-0.977,1.092-1.392,1.638c0.158,0.26,0.322,0.516,0.493,0.77
		c0.426-0.562,0.928-1.111,1.499-1.646C137.84,42.994,137.64,42.74,137.449,42.481"/>
	<path fill="#523050" d="M174.218,34.757c0.283,0.634,0.554,1.282,0.809,1.941c0.08-0.546,0.146-1.089,0.193-1.628
		C174.891,34.961,174.558,34.857,174.218,34.757 M172.338,34.271c-0.081,0.715-0.188,1.437-0.322,2.165
		c0.724,0.163,1.425,0.345,2.098,0.546c-0.337-0.871-0.698-1.721-1.083-2.545C172.801,34.379,172.57,34.324,172.338,34.271"/>
	<path fill="#3B334A" d="M173.03,34.436c0.385,0.825,0.746,1.675,1.083,2.545c0.283,0.084,0.559,0.172,0.831,0.263
		c0.028-0.183,0.058-0.364,0.082-0.546c-0.255-0.659-0.525-1.307-0.809-1.941C173.83,34.645,173.433,34.538,173.03,34.436"/>
	<path fill="#523050" d="M162.181,59.046c-1.163,0.152-2.352,0.269-3.557,0.342c-0.732,0.045-1.455,0.073-2.17,0.087
		c-0.486,0.281-0.976,0.543-1.468,0.781c0.346,0.008,0.694,0.012,1.043,0.012c0.921,0,1.857-0.028,2.806-0.085
		c0.683-0.041,1.356-0.096,2.024-0.162C161.305,59.711,161.744,59.386,162.181,59.046 M184.293,41.818
		c0.055,0.405,0.097,0.814,0.122,1.228c0.113,1.876-0.095,3.713-0.583,5.472c0.692-1.357,1.062-2.786,1.062-4.258
		C184.843,43.407,184.637,42.593,184.293,41.818 M182.483,39.224c-0.294,0.547-0.654,1.104-1.074,1.665
		c0.265,0.262,0.509,0.533,0.727,0.81c0.423-0.534,0.794-1.069,1.11-1.603C183.015,39.796,182.758,39.506,182.483,39.224"/>
</g>
<g>
	<g>
		<path d="M30.979,30.564v-7.487h0.835v6.728h2.138v0.759H30.979z"/>
		<path d="M36.689,28.799c0,0.342,0.069,0.608,0.208,0.797c0.139,0.189,0.363,0.284,0.668,0.284c0.301,0,0.52-0.095,0.658-0.284
			c0.139-0.188,0.209-0.455,0.209-0.797v-5.722h0.781v5.68c0,0.57-0.136,1.028-0.407,1.374c-0.271,0.346-0.695,0.519-1.271,0.519
			c-0.571,0-0.992-0.173-1.264-0.519c-0.271-0.346-0.405-0.804-0.405-1.374v-5.68h0.823V28.799z"/>
		<path d="M43.213,27.334l-1.252,3.23h-0.79l1.508-3.861l-1.412-3.626h0.866l1.154,2.996l1.167-2.996h0.78l-1.401,3.626l1.497,3.861
			h-0.876L43.213,27.334z"/>
		<path d="M49.982,26.394v0.748h-1.828v2.663h2.245v0.759H47.32v-7.487h3.079v0.76h-2.245v2.557H49.982z"/>
		<path d="M55.243,30.554h-0.802l-1.24-5.957v5.967h-0.727v-7.487h1.165l1.229,5.979l1.188-5.979h1.166v7.487h-0.792v-6.021
			L55.243,30.554z"/>
		<path d="M61.072,23.078c0.584,0,1.002,0.138,1.252,0.412c0.249,0.275,0.374,0.689,0.374,1.246v0.353
			c0,0.399-0.064,0.722-0.192,0.967c-0.128,0.247-0.356,0.419-0.685,0.519c0.363,0.101,0.621,0.29,0.775,0.567
			c0.153,0.279,0.23,0.624,0.23,1.038v0.63c0,0.564-0.14,0.997-0.418,1.3c-0.278,0.303-0.709,0.455-1.294,0.455h-1.722v-7.487
			H61.072z M60.869,26.255c0.335,0,0.587-0.068,0.754-0.204c0.168-0.136,0.252-0.399,0.252-0.792v-0.438
			c0-0.335-0.062-0.583-0.188-0.743c-0.123-0.161-0.336-0.241-0.636-0.241h-0.823v2.417H60.869z M61.115,29.805
			c0.592,0,0.888-0.339,0.888-1.016v-0.664c0-0.42-0.083-0.711-0.251-0.872c-0.168-0.16-0.434-0.24-0.797-0.24h-0.728v2.792H61.115z
			"/>
		<path d="M64.838,24.886c0-0.578,0.141-1.036,0.423-1.375c0.281-0.338,0.711-0.508,1.288-0.508s1.009,0.169,1.294,0.508
			c0.284,0.339,0.428,0.796,0.428,1.375v3.872c0,0.57-0.144,1.027-0.428,1.369c-0.285,0.342-0.717,0.514-1.294,0.514
			s-1.007-0.171-1.288-0.514c-0.282-0.342-0.423-0.798-0.423-1.369V24.886z M65.661,28.799c0,0.342,0.073,0.608,0.219,0.797
			c0.146,0.189,0.369,0.284,0.669,0.284c0.308,0,0.53-0.095,0.674-0.284c0.143-0.188,0.213-0.455,0.213-0.797v-3.957
			c0-0.343-0.07-0.607-0.213-0.797c-0.144-0.189-0.366-0.283-0.674-0.283c-0.3,0-0.522,0.094-0.669,0.283
			c-0.146,0.19-0.219,0.454-0.219,0.797V28.799z"/>
		<path d="M71.168,28.799c0,0.342,0.07,0.608,0.209,0.797c0.14,0.189,0.362,0.284,0.668,0.284c0.3,0,0.52-0.095,0.658-0.284
			c0.139-0.188,0.208-0.455,0.208-0.797v-5.722h0.781v5.68c0,0.57-0.136,1.028-0.406,1.374s-0.694,0.519-1.273,0.519
			c-0.57,0-0.99-0.173-1.262-0.519c-0.271-0.346-0.405-0.804-0.405-1.374v-5.68h0.822V28.799z"/>
		<path d="M77.5,23.078c0.592,0,1.018,0.146,1.278,0.439c0.259,0.292,0.391,0.716,0.391,1.273v0.609c0,0.414-0.076,0.75-0.226,1.006
			c-0.149,0.256-0.386,0.435-0.706,0.535c0.342,0.099,0.585,0.283,0.728,0.55s0.214,0.604,0.214,1.011v1.165
			c0,0.165,0.007,0.323,0.021,0.477c0.014,0.152,0.057,0.293,0.129,0.422h-0.846c-0.05-0.107-0.086-0.223-0.107-0.348
			c-0.021-0.125-0.031-0.312-0.031-0.561v-1.177c0-0.421-0.094-0.711-0.284-0.872c-0.188-0.16-0.457-0.24-0.807-0.24h-0.589v3.197
			h-0.834v-7.487H77.5z M77.285,26.607c0.335,0,0.595-0.069,0.781-0.208c0.186-0.14,0.278-0.412,0.278-0.818v-0.717
			c0-0.342-0.066-0.599-0.198-0.77c-0.132-0.17-0.354-0.256-0.669-0.256h-0.812v2.77H77.285z"/>
		<path d="M82.976,23.003c0.578,0,1.003,0.17,1.278,0.513c0.274,0.342,0.412,0.799,0.412,1.369v0.641h-0.791v-0.684
			c0-0.343-0.07-0.607-0.21-0.797c-0.139-0.189-0.361-0.283-0.667-0.283c-0.3,0-0.521,0.094-0.664,0.283
			c-0.144,0.19-0.214,0.454-0.214,0.797v3.957c0,0.342,0.07,0.608,0.214,0.797c0.143,0.189,0.364,0.284,0.664,0.284
			c0.306,0,0.528-0.095,0.667-0.284c0.14-0.188,0.21-0.455,0.21-0.797v-1.497h-0.771v-0.75h1.562v2.204
			c0,0.57-0.138,1.027-0.412,1.369c-0.275,0.342-0.7,0.514-1.278,0.514c-0.571,0-0.993-0.171-1.267-0.514
			c-0.274-0.342-0.411-0.798-0.411-1.369v-3.872c0-0.285,0.032-0.543,0.101-0.775c0.067-0.231,0.171-0.43,0.311-0.594
			c0.139-0.164,0.313-0.291,0.523-0.379C82.443,23.048,82.69,23.003,82.976,23.003z"/>
	</g>
	<g>
		<path d="M44.4,33.826v7.487h-0.833v-7.487H44.4z"/>
		<path d="M47.309,41.313h-0.747v-7.487h1.058l1.732,5.412v-5.412h0.739v7.487h-0.867l-1.915-6.053V41.313z"/>
		<path d="M53.833,33.751c0.57,0,0.991,0.17,1.262,0.508c0.271,0.34,0.407,0.794,0.407,1.365v0.203H54.71v-0.246
			c0-0.342-0.067-0.606-0.202-0.791c-0.137-0.186-0.354-0.279-0.654-0.279c-0.298,0-0.517,0.093-0.651,0.279
			c-0.136,0.185-0.203,0.445-0.203,0.78c0,0.278,0.062,0.521,0.187,0.727c0.125,0.208,0.279,0.397,0.466,0.572
			c0.186,0.175,0.387,0.346,0.604,0.514c0.219,0.167,0.419,0.351,0.604,0.551s0.341,0.426,0.466,0.679
			c0.125,0.253,0.188,0.554,0.188,0.904c0,0.57-0.138,1.025-0.412,1.363c-0.275,0.338-0.701,0.508-1.278,0.508
			s-1.003-0.169-1.273-0.508c-0.27-0.338-0.405-0.793-0.405-1.363v-0.428h0.781v0.47c0,0.342,0.07,0.606,0.214,0.792
			c0.142,0.185,0.362,0.278,0.662,0.278s0.521-0.093,0.663-0.278c0.143-0.186,0.214-0.45,0.214-0.792
			c0-0.278-0.062-0.519-0.188-0.722c-0.124-0.203-0.279-0.392-0.465-0.567c-0.185-0.175-0.386-0.346-0.599-0.513
			c-0.214-0.168-0.414-0.352-0.599-0.551c-0.187-0.2-0.342-0.426-0.466-0.679c-0.125-0.253-0.188-0.555-0.188-0.904
			c0-0.578,0.136-1.034,0.406-1.369C52.853,33.919,53.27,33.751,53.833,33.751z"/>
		<path d="M58.646,41.313v-6.727h-1.38v-0.76h3.594v0.76h-1.381v6.727H58.646z"/>
		<path d="M63.587,33.826v7.487h-0.834v-7.487H63.587z"/>
		<path d="M66.85,41.313v-6.727h-1.38v-0.76h3.594v0.76h-1.381v6.727H66.85z"/>
		<path d="M71.746,39.548c0,0.342,0.069,0.608,0.208,0.796c0.14,0.189,0.363,0.284,0.669,0.284c0.3,0,0.519-0.095,0.658-0.284
			c0.139-0.188,0.208-0.454,0.208-0.796v-5.722h0.781v5.68c0,0.57-0.136,1.028-0.407,1.374c-0.27,0.346-0.694,0.518-1.271,0.518
			c-0.571,0-0.992-0.172-1.263-0.518c-0.271-0.346-0.405-0.804-0.405-1.374v-5.68h0.822V39.548z"/>
		<path d="M77.5,41.313v-6.727h-1.379v-0.76h3.593v0.76h-1.38v6.727H77.5z"/>
		<path d="M84.27,37.142v0.749h-1.828v2.663h2.246v0.759h-3.08v-7.487h3.08v0.76h-2.246v2.556H84.27z"/>
	</g>
	<g>
		<path d="M38.229,46.413c0-0.578,0.142-1.036,0.423-1.375c0.281-0.34,0.711-0.51,1.288-0.51c0.578,0,1.01,0.17,1.294,0.51
			c0.286,0.339,0.428,0.797,0.428,1.375v3.87c0,0.572-0.142,1.028-0.428,1.368c-0.284,0.343-0.716,0.515-1.294,0.515
			c-0.577,0-1.007-0.172-1.288-0.515c-0.281-0.34-0.423-0.796-0.423-1.368V46.413z M39.053,50.326c0,0.343,0.073,0.608,0.22,0.797
			c0.146,0.189,0.368,0.283,0.668,0.283c0.308,0,0.531-0.094,0.674-0.283c0.144-0.188,0.213-0.454,0.213-0.797V46.37
			c0-0.343-0.069-0.607-0.213-0.797c-0.143-0.189-0.366-0.284-0.674-0.284c-0.3,0-0.522,0.095-0.668,0.284
			c-0.146,0.189-0.22,0.454-0.22,0.797V50.326z"/>
		<path d="M46.325,48.09v0.762h-1.722v3.24H43.77v-7.486h2.973v0.758h-2.139v2.727H46.325z"/>
		<path d="M53.266,44.528c0.57,0,0.991,0.17,1.262,0.51c0.271,0.339,0.407,0.793,0.407,1.363v0.205h-0.792v-0.248
			c0-0.343-0.067-0.606-0.202-0.79c-0.136-0.187-0.354-0.279-0.653-0.279c-0.299,0-0.518,0.093-0.652,0.279
			c-0.136,0.184-0.203,0.443-0.203,0.78c0,0.278,0.063,0.521,0.187,0.726c0.125,0.208,0.28,0.398,0.466,0.573
			c0.186,0.174,0.387,0.346,0.604,0.515c0.219,0.165,0.42,0.351,0.605,0.55c0.185,0.198,0.34,0.426,0.465,0.68
			c0.125,0.252,0.188,0.553,0.188,0.904c0,0.568-0.138,1.022-0.412,1.363c-0.274,0.337-0.7,0.507-1.278,0.507
			c-0.577,0-1.003-0.17-1.273-0.507c-0.27-0.341-0.404-0.795-0.404-1.363v-0.429h0.78v0.469c0,0.343,0.07,0.607,0.214,0.793
			c0.142,0.186,0.363,0.277,0.662,0.277c0.3,0,0.521-0.092,0.663-0.277s0.214-0.45,0.214-0.793c0-0.276-0.062-0.519-0.188-0.721
			c-0.124-0.202-0.279-0.393-0.465-0.566c-0.185-0.175-0.386-0.346-0.599-0.513c-0.214-0.169-0.414-0.352-0.599-0.553
			c-0.186-0.199-0.342-0.424-0.466-0.678c-0.125-0.254-0.188-0.556-0.188-0.904c0-0.578,0.136-1.034,0.406-1.368
			C52.285,44.696,52.702,44.528,53.266,44.528z"/>
		<path d="M58.603,44.528c0.578,0,1.004,0.172,1.278,0.515s0.412,0.799,0.412,1.37v0.674h-0.792V46.37
			c0-0.343-0.069-0.607-0.208-0.797c-0.14-0.189-0.361-0.284-0.669-0.284c-0.299,0-0.521,0.095-0.662,0.284
			c-0.144,0.189-0.214,0.454-0.214,0.797v3.956c0,0.343,0.07,0.608,0.214,0.797c0.142,0.189,0.363,0.283,0.662,0.283
			c0.308,0,0.529-0.094,0.669-0.283c0.139-0.188,0.208-0.454,0.208-0.797v-0.973h0.792v0.93c0,0.572-0.138,1.028-0.412,1.368
			c-0.274,0.343-0.7,0.515-1.278,0.515c-0.57,0-0.992-0.172-1.267-0.515c-0.275-0.34-0.412-0.796-0.412-1.368v-3.87
			c0-0.285,0.034-0.544,0.102-0.776c0.067-0.231,0.171-0.43,0.311-0.594s0.313-0.291,0.522-0.379
			C58.07,44.575,58.317,44.528,58.603,44.528z"/>
		<path d="M63.201,44.605v7.486h-0.834v-7.486H63.201z"/>
		<path d="M68.035,47.921v0.748h-1.828v2.663h2.245v0.76h-3.079v-7.486h3.079v0.758h-2.245v2.558H68.035z"/>
		<path d="M71.275,52.092h-0.748v-7.486h1.059l1.732,5.412v-5.412h0.738v7.486h-0.867l-1.914-6.054V52.092z"/>
		<path d="M77.842,44.528c0.578,0,1.004,0.172,1.278,0.515s0.412,0.799,0.412,1.37v0.674H78.74V46.37
			c0-0.343-0.069-0.607-0.209-0.797c-0.139-0.189-0.36-0.284-0.668-0.284c-0.299,0-0.521,0.095-0.662,0.284
			c-0.144,0.189-0.215,0.454-0.215,0.797v3.956c0,0.343,0.071,0.608,0.215,0.797c0.142,0.189,0.363,0.283,0.662,0.283
			c0.308,0,0.529-0.094,0.668-0.283c0.14-0.188,0.209-0.454,0.209-0.797v-0.973h0.792v0.93c0,0.572-0.138,1.028-0.412,1.368
			c-0.274,0.343-0.7,0.515-1.278,0.515c-0.57,0-0.992-0.172-1.267-0.515c-0.275-0.34-0.412-0.796-0.412-1.368v-3.87
			c0-0.285,0.034-0.544,0.101-0.776c0.068-0.231,0.172-0.43,0.312-0.594c0.139-0.164,0.313-0.291,0.523-0.379
			C77.31,44.575,77.557,44.528,77.842,44.528z"/>
		<path d="M84.269,47.921v0.748H82.44v2.663h2.246v0.76h-3.08v-7.486h3.08v0.758H82.44v2.558H84.269z"/>
	</g>
	<g>
		<path d="M13.687,61.332l-0.289,1.508h-0.771l1.435-7.486h1.208L16.7,62.84h-0.833l-0.289-1.508H13.687z M13.792,60.615h1.669
			l-0.846-4.32L13.792,60.615z"/>
		<path d="M19.407,62.84h-0.749v-7.486h1.06l1.731,5.412v-5.412h0.738v7.486h-0.866l-1.914-6.053V62.84z"/>
		<path d="M26.113,55.354c0.584,0,1.014,0.166,1.289,0.496c0.273,0.333,0.41,0.788,0.41,1.366v3.775c0,0.576-0.137,1.028-0.41,1.356
			c-0.275,0.329-0.705,0.492-1.289,0.492h-1.755v-7.486H26.113z M26.102,62.08c0.301,0,0.521-0.09,0.669-0.273
			c0.146-0.181,0.22-0.441,0.22-0.785v-3.849c0-0.343-0.074-0.604-0.22-0.787c-0.147-0.182-0.373-0.271-0.679-0.271h-0.897v5.966
			H26.102z"/>
		<path d="M33.974,62.84v-6.726h-1.379v-0.761h3.594v0.761h-1.381v6.726H33.974z"/>
		<path d="M40.743,58.67v0.749h-1.83v2.661h2.246v0.76H38.08v-7.486h3.079v0.761h-2.246v2.556H40.743z"/>
		<path d="M44.86,55.279c0.577,0,1.003,0.171,1.277,0.513c0.274,0.344,0.412,0.799,0.412,1.369v0.674h-0.791v-0.717
			c0-0.342-0.07-0.607-0.209-0.797c-0.139-0.188-0.36-0.283-0.668-0.283c-0.299,0-0.521,0.096-0.662,0.283
			c-0.144,0.189-0.215,0.455-0.215,0.797v3.956c0,0.343,0.071,0.61,0.215,0.798c0.141,0.189,0.363,0.284,0.662,0.284
			c0.308,0,0.529-0.095,0.668-0.284c0.139-0.188,0.209-0.455,0.209-0.798v-0.972h0.791v0.932c0,0.569-0.138,1.025-0.412,1.367
			c-0.274,0.343-0.7,0.514-1.277,0.514c-0.57,0-0.992-0.171-1.267-0.514c-0.275-0.342-0.412-0.798-0.412-1.367v-3.873
			c0-0.285,0.034-0.543,0.101-0.775c0.068-0.23,0.172-0.43,0.312-0.594c0.139-0.163,0.313-0.291,0.523-0.379
			C44.328,55.323,44.574,55.279,44.86,55.279z"/>
		<path d="M49.458,59.472v3.368h-0.833v-7.486h0.833v3.368h1.84v-3.368h0.835v7.486h-0.835v-3.368H49.458z"/>
		<path d="M55.041,62.84h-0.748v-7.486h1.059l1.732,5.412v-5.412h0.738v7.486h-0.867l-1.914-6.053V62.84z"/>
		<path d="M59.929,57.161c0-0.578,0.141-1.036,0.423-1.375c0.28-0.338,0.711-0.507,1.288-0.507c0.578,0,1.01,0.169,1.294,0.507
			c0.284,0.339,0.428,0.797,0.428,1.375v3.873c0,0.569-0.144,1.025-0.428,1.367c-0.284,0.343-0.716,0.514-1.294,0.514
			c-0.577,0-1.008-0.171-1.288-0.514c-0.282-0.342-0.423-0.798-0.423-1.367V57.161z M60.752,61.074c0,0.343,0.073,0.61,0.22,0.798
			c0.146,0.189,0.368,0.284,0.668,0.284c0.308,0,0.53-0.095,0.674-0.284c0.143-0.188,0.213-0.455,0.213-0.798v-3.956
			c0-0.342-0.07-0.607-0.213-0.797c-0.144-0.188-0.366-0.283-0.674-0.283c-0.3,0-0.522,0.096-0.668,0.283
			c-0.146,0.189-0.22,0.455-0.22,0.797V61.074z"/>
		<path d="M65.47,62.84v-7.486h0.834v6.727h2.139v0.76H65.47z"/>
		<path d="M70.324,57.161c0-0.578,0.141-1.036,0.422-1.375c0.282-0.338,0.712-0.507,1.288-0.507c0.578,0,1.01,0.169,1.294,0.507
			c0.286,0.339,0.429,0.797,0.429,1.375v3.873c0,0.569-0.143,1.025-0.429,1.367c-0.284,0.343-0.716,0.514-1.294,0.514
			c-0.576,0-1.006-0.171-1.288-0.514c-0.281-0.342-0.422-0.798-0.422-1.367V57.161z M71.146,61.074c0,0.343,0.074,0.61,0.22,0.798
			c0.146,0.189,0.368,0.284,0.668,0.284c0.308,0,0.532-0.095,0.675-0.284c0.143-0.188,0.213-0.455,0.213-0.798v-3.956
			c0-0.342-0.07-0.607-0.213-0.797c-0.143-0.188-0.367-0.283-0.675-0.283c-0.3,0-0.521,0.096-0.668,0.283
			c-0.146,0.189-0.22,0.455-0.22,0.797V61.074z"/>
		<path d="M77.479,55.279c0.578,0,1.004,0.171,1.279,0.513c0.274,0.344,0.411,0.799,0.411,1.369v0.642h-0.791v-0.685
			c0-0.342-0.069-0.607-0.209-0.797c-0.14-0.188-0.362-0.283-0.669-0.283c-0.299,0-0.52,0.096-0.663,0.283
			c-0.144,0.189-0.214,0.455-0.214,0.797v3.956c0,0.343,0.07,0.61,0.214,0.798c0.144,0.189,0.364,0.284,0.663,0.284
			c0.307,0,0.529-0.095,0.669-0.284c0.14-0.188,0.209-0.455,0.209-0.798v-1.496h-0.771v-0.749h1.562v2.205
			c0,0.569-0.137,1.025-0.411,1.367c-0.275,0.343-0.701,0.514-1.279,0.514c-0.57,0-0.993-0.171-1.267-0.514
			c-0.274-0.342-0.411-0.798-0.411-1.367v-3.873c0-0.285,0.033-0.543,0.101-0.775c0.067-0.23,0.171-0.43,0.311-0.594
			c0.139-0.163,0.313-0.291,0.523-0.379C76.946,55.323,77.194,55.279,77.479,55.279z"/>
		<path d="M82.441,60.156l-1.583-4.803h0.866l1.166,3.68l1.176-3.68h0.79l-1.592,4.803v2.684h-0.823V60.156z"/>
	</g>
</g>
</svg>
