<?xml version="1.0" encoding="utf-8"?>
<!-- Generator: Adobe Illustrator 16.0.4, SVG Export Plug-In . SVG Version: 6.00 Build 0)  -->
<!DOCTYPE svg PUBLIC "-//W3C//DTD SVG 1.1//EN" "http://www.w3.org/Graphics/SVG/1.1/DTD/svg11.dtd">
<svg version="1.1" id="Layer_1" xmlns="http://www.w3.org/2000/svg" xmlns:xlink="http://www.w3.org/1999/xlink" x="0px" y="0px"
	 width="490px" height="180px" viewBox="0 0 490 180" enable-background="new 0 0 490 180" xml:space="preserve">
<polyline fill="#C32A23" points="421.958,63.624 421.958,26.223 384.547,26.223 384.547,63.624 347.131,63.624 347.131,101.021 
	384.547,101.021 384.547,138.439 421.958,138.439 421.958,101.021 459.374,101.021 459.374,63.624 421.958,63.624 "/>
<g enable-background="new    ">
	<path fill="#272425" d="M41.43,69.184c-1.362,0-2.504,0.311-3.425,0.931c-0.922,0.622-1.673,1.422-2.253,2.403
		c-0.582,0.982-0.992,2.063-1.232,3.244c-0.241,1.182-0.361,2.354-0.361,3.515c0,1.122,0.12,2.263,0.361,3.424
		c0.24,1.163,0.631,2.214,1.171,3.154c0.541,0.941,1.271,1.712,2.193,2.313c0.921,0.601,2.043,0.901,3.365,0.901
		c2.043,0,3.615-0.571,4.717-1.712c1.102-1.142,1.792-2.673,2.073-4.596h8.232c-0.562,4.126-2.163,7.27-4.807,9.432
		c-2.644,2.164-6.03,3.245-10.156,3.245c-2.324,0-4.457-0.391-6.399-1.172c-1.944-0.78-3.596-1.872-4.958-3.274
		c-1.362-1.401-2.424-3.073-3.185-5.017c-0.762-1.942-1.142-4.075-1.142-6.398c0-2.403,0.35-4.635,1.051-6.699
		c0.701-2.062,1.732-3.845,3.095-5.347c1.362-1.502,3.024-2.673,4.988-3.515c1.962-0.841,4.207-1.262,6.73-1.262
		c1.842,0,3.615,0.24,5.318,0.721c1.702,0.48,3.224,1.212,4.567,2.193c1.342,0.982,2.434,2.203,3.275,3.665
		c0.841,1.463,1.322,3.195,1.442,5.197H47.74C47.179,70.966,45.075,69.184,41.43,69.184z"/>
</g>
<g enable-background="new    ">
	<path fill="#272425" d="M66.547,63.596v5.768h0.12c0.4-0.961,0.941-1.852,1.623-2.674c0.681-0.82,1.462-1.521,2.343-2.103
		c0.881-0.58,1.823-1.031,2.825-1.352c1-0.32,2.043-0.48,3.125-0.48c0.561,0,1.181,0.101,1.863,0.3v7.931
		c-0.401-0.08-0.881-0.15-1.442-0.21c-0.562-0.06-1.103-0.09-1.623-0.09c-1.562,0-2.884,0.261-3.966,0.781
		c-1.082,0.521-1.953,1.232-2.614,2.133c-0.661,0.901-1.132,1.953-1.412,3.154c-0.281,1.202-0.421,2.504-0.421,3.905v13.999h-8.533
		V63.596H66.547z"/>
</g>
<g enable-background="new    ">
	<path fill="#272425" d="M78.265,72.397c0.76-2.022,1.842-3.745,3.245-5.167c1.401-1.421,3.084-2.523,5.047-3.305
		c1.962-0.781,4.166-1.171,6.61-1.171c2.443,0,4.657,0.391,6.64,1.171c1.983,0.781,3.675,1.883,5.078,3.305
		c1.402,1.422,2.483,3.145,3.245,5.167c0.76,2.023,1.142,4.276,1.142,6.759c0,2.484-0.381,4.727-1.142,6.729
		c-0.762,2.003-1.843,3.715-3.245,5.137c-1.403,1.423-3.095,2.514-5.078,3.274c-1.983,0.76-4.197,1.142-6.64,1.142
		c-2.444,0-4.648-0.382-6.61-1.142c-1.963-0.761-3.646-1.852-5.047-3.274c-1.403-1.421-2.485-3.134-3.245-5.137
		c-0.762-2.002-1.142-4.245-1.142-6.729C77.124,76.674,77.503,74.421,78.265,72.397z M86.017,82.792
		c0.24,1.182,0.65,2.244,1.232,3.184c0.58,0.942,1.352,1.693,2.313,2.253c0.961,0.562,2.163,0.841,3.605,0.841
		c1.442,0,2.653-0.28,3.635-0.841c0.981-0.56,1.763-1.311,2.344-2.253c0.58-0.94,0.992-2.002,1.232-3.184
		c0.24-1.181,0.36-2.393,0.36-3.635c0-1.241-0.12-2.463-0.36-3.665s-0.652-2.262-1.232-3.184c-0.581-0.921-1.362-1.672-2.344-2.253
		c-0.982-0.58-2.193-0.871-3.635-0.871c-1.442,0-2.644,0.291-3.605,0.871c-0.961,0.581-1.733,1.332-2.313,2.253
		c-0.582,0.922-0.992,1.982-1.232,3.184c-0.241,1.202-0.361,2.424-0.361,3.665C85.656,80.398,85.776,81.61,86.017,82.792z"/>
</g>
<g enable-background="new    ">
	<path fill="#272425" d="M112.337,58.79V51.76h8.533v7.029H112.337z M120.87,63.596v31.061h-8.533V63.596H120.87z"/>
</g>
<g enable-background="new    ">
	<path fill="#272425" d="M122.672,63.596h9.735l5.468,8.11l5.408-8.11h9.435l-10.216,14.539l11.478,16.522h-9.735l-6.49-9.793
		l-6.49,9.793h-9.555l11.177-16.342L122.672,63.596z"/>
</g>
<g enable-background="new    ">
	<path fill="#272425" d="M169.904,74.591v7.33h-18.087v-7.33H169.904z"/>
</g>
<g enable-background="new    ">
	<path fill="#272425" d="M181.741,63.596v5.768h0.12c0.4-0.961,0.941-1.852,1.623-2.674c0.681-0.82,1.462-1.521,2.343-2.103
		c0.881-0.58,1.823-1.031,2.825-1.352c1-0.32,2.043-0.48,3.125-0.48c0.561,0,1.181,0.101,1.863,0.3v7.931
		c-0.401-0.08-0.881-0.15-1.442-0.21c-0.562-0.06-1.103-0.09-1.623-0.09c-1.562,0-2.884,0.261-3.966,0.781
		c-1.082,0.521-1.953,1.232-2.614,2.133c-0.661,0.901-1.132,1.953-1.412,3.154c-0.281,1.202-0.421,2.504-0.421,3.905v13.999h-8.533
		V63.596H181.741z"/>
</g>
<g enable-background="new    ">
	<path fill="#272425" d="M193.459,72.397c0.76-2.022,1.842-3.745,3.245-5.167c1.401-1.421,3.084-2.523,5.047-3.305
		c1.962-0.781,4.166-1.171,6.61-1.171c2.443,0,4.657,0.391,6.64,1.171c1.983,0.781,3.675,1.883,5.078,3.305
		c1.402,1.422,2.483,3.145,3.245,5.167c0.76,2.023,1.142,4.276,1.142,6.759c0,2.484-0.381,4.727-1.142,6.729
		c-0.762,2.003-1.843,3.715-3.245,5.137c-1.403,1.423-3.095,2.514-5.078,3.274c-1.983,0.76-4.197,1.142-6.64,1.142
		c-2.444,0-4.648-0.382-6.61-1.142c-1.963-0.761-3.646-1.852-5.047-3.274c-1.403-1.421-2.485-3.134-3.245-5.137
		c-0.762-2.002-1.142-4.245-1.142-6.729C192.318,76.674,192.698,74.421,193.459,72.397z M201.211,82.792
		c0.24,1.182,0.65,2.244,1.232,3.184c0.58,0.942,1.352,1.693,2.313,2.253c0.961,0.562,2.163,0.841,3.605,0.841
		c1.442,0,2.653-0.28,3.635-0.841c0.981-0.56,1.763-1.311,2.344-2.253c0.58-0.94,0.992-2.002,1.232-3.184
		c0.24-1.181,0.36-2.393,0.36-3.635c0-1.241-0.12-2.463-0.36-3.665s-0.652-2.262-1.232-3.184c-0.581-0.921-1.362-1.672-2.344-2.253
		c-0.982-0.58-2.193-0.871-3.635-0.871c-1.442,0-2.644,0.291-3.605,0.871c-0.961,0.581-1.733,1.332-2.313,2.253
		c-0.582,0.922-0.992,1.982-1.232,3.184c-0.241,1.202-0.361,2.424-0.361,3.665C200.851,80.398,200.971,81.61,201.211,82.792z"/>
</g>
<g enable-background="new    ">
	<path fill="#272425" d="M248.322,94.657v-4.326h-0.18c-1.082,1.802-2.484,3.104-4.207,3.905c-1.723,0.801-3.485,1.202-5.288,1.202
		c-2.283,0-4.156-0.301-5.618-0.901c-1.463-0.602-2.614-1.451-3.456-2.553s-1.433-2.443-1.772-4.026
		c-0.341-1.582-0.511-3.334-0.511-5.257V63.596h8.533v17.543c0,2.564,0.4,4.476,1.202,5.738c0.801,1.262,2.223,1.893,4.266,1.893
		c2.323,0,4.006-0.691,5.048-2.073c1.041-1.382,1.562-3.655,1.562-6.819V63.596h8.533v31.061H248.322z"/>
</g>
<g enable-background="new    ">
	<path fill="#272425" d="M289.634,96.94c-0.341,1.602-1.072,3.094-2.193,4.476c-1.122,1.382-2.744,2.554-4.867,3.515
		c-2.124,0.962-4.968,1.442-8.533,1.442c-1.522,0-3.075-0.191-4.657-0.57c-1.583-0.382-3.025-0.973-4.326-1.773
		c-1.303-0.801-2.385-1.832-3.245-3.094c-0.862-1.262-1.353-2.773-1.472-4.536h8.473c0.399,1.602,1.181,2.713,2.344,3.335
		c1.161,0.62,2.502,0.931,4.025,0.931c2.404,0,4.156-0.721,5.258-2.163c1.102-1.441,1.633-3.265,1.593-5.467V88.95h-0.12
		c-0.922,1.642-2.234,2.853-3.936,3.634c-1.703,0.781-3.496,1.172-5.379,1.172c-2.324,0-4.326-0.41-6.009-1.231
		c-1.683-0.82-3.065-1.942-4.146-3.364c-1.081-1.421-1.873-3.084-2.374-4.987c-0.501-1.902-0.75-3.915-0.75-6.038
		c0-2.002,0.289-3.935,0.871-5.798c0.58-1.862,1.432-3.504,2.553-4.926c1.121-1.421,2.514-2.553,4.178-3.395
		c1.661-0.841,3.574-1.262,5.738-1.262c2.043,0,3.836,0.381,5.378,1.142c1.542,0.761,2.834,2.042,3.876,3.845h0.12v-4.146h8.112
		v29.079C290.145,93.916,289.974,95.338,289.634,96.94z M277.946,86.606c0.921-0.48,1.683-1.121,2.283-1.922
		c0.601-0.801,1.052-1.712,1.353-2.734c0.301-1.021,0.45-2.092,0.45-3.214c0-1.282-0.12-2.494-0.36-3.635
		c-0.24-1.141-0.642-2.152-1.202-3.034c-0.562-0.881-1.302-1.582-2.224-2.103c-0.922-0.52-2.083-0.781-3.484-0.781
		c-1.202,0-2.234,0.24-3.096,0.721c-0.861,0.481-1.582,1.132-2.162,1.953c-0.582,0.821-1.002,1.763-1.263,2.824
		c-0.261,1.062-0.391,2.173-0.391,3.334c0,1.122,0.11,2.233,0.331,3.334c0.219,1.102,0.601,2.093,1.141,2.974
		c0.541,0.881,1.252,1.602,2.134,2.163c0.881,0.562,1.983,0.841,3.306,0.841C275.963,87.328,277.023,87.087,277.946,86.606z"/>
</g>
<g enable-background="new    ">
	<path fill="#272425" d="M303.425,87.208c1.282,1.242,3.125,1.862,5.528,1.862c1.723,0,3.205-0.43,4.447-1.292
		c1.24-0.861,2.002-1.772,2.283-2.734h7.512c-1.202,3.725-3.045,6.389-5.529,7.991c-2.484,1.603-5.488,2.403-9.014,2.403
		c-2.443,0-4.647-0.391-6.609-1.172c-1.963-0.78-3.627-1.893-4.988-3.335c-1.361-1.441-2.414-3.163-3.154-5.166
		c-0.742-2.002-1.111-4.206-1.111-6.609c0-2.323,0.38-4.485,1.141-6.489c0.762-2.002,1.843-3.734,3.246-5.197
		c1.401-1.461,3.074-2.613,5.018-3.455c1.942-0.841,4.096-1.262,6.459-1.262c2.645,0,4.947,0.511,6.911,1.532
		c1.962,1.021,3.575,2.394,4.837,4.115c1.262,1.723,2.173,3.686,2.734,5.888c0.561,2.204,0.761,4.506,0.602,6.909h-22.414
		C301.441,83.963,302.143,85.966,303.425,87.208z M313.069,70.866c-1.021-1.121-2.574-1.682-4.657-1.682
		c-1.362,0-2.494,0.231-3.395,0.691c-0.902,0.461-1.623,1.032-2.164,1.712c-0.541,0.682-0.922,1.403-1.141,2.163
		c-0.221,0.761-0.352,1.442-0.391,2.042h13.881C314.802,73.629,314.092,71.987,313.069,70.866z"/>
</g>
<g enable-background="new    ">
	<path fill="#272425" d="M30.861,108.348v30.083h-2.655v-30.083H30.861z"/>
	<path fill="#272425" d="M51.132,138.431v-3.919h-0.084c-0.703,1.461-1.722,2.578-3.056,3.35c-1.334,0.773-2.817,1.159-4.446,1.159
		c-1.377,0-2.55-0.189-3.519-0.569c-0.969-0.379-1.756-0.919-2.36-1.621c-0.604-0.702-1.047-1.56-1.328-2.57
		c-0.281-1.012-0.421-2.163-0.421-3.455v-14.115h2.655v14.157c0.056,1.966,0.512,3.455,1.37,4.466
		c0.856,1.012,2.339,1.518,4.446,1.518c1.152,0,2.135-0.246,2.95-0.738c0.814-0.49,1.489-1.144,2.022-1.959
		c0.534-0.814,0.927-1.748,1.18-2.802s0.379-2.128,0.379-3.224v-11.418h2.655v21.741H51.132z"/>
	<path fill="#272425" d="M56.736,116.689h3.329l6.195,8.258l6.069-8.258h3.329l-7.838,10.407l8.471,11.334h-3.372l-6.827-9.144
		l-6.701,9.144h-3.287l8.429-11.292L56.736,116.689z"/>
	<path fill="#272425" d="M80.82,131.246c0.267,1.026,0.695,1.946,1.285,2.761c0.59,0.815,1.334,1.489,2.233,2.022
		c0.899,0.533,1.981,0.801,3.245,0.801c1.938,0,3.456-0.506,4.551-1.518c1.096-1.011,1.854-2.359,2.276-4.045h2.655
		c-0.562,2.473-1.595,4.383-3.097,5.73c-1.503,1.348-3.632,2.022-6.385,2.022c-1.714,0-3.196-0.302-4.446-0.905
		c-1.25-0.604-2.269-1.434-3.056-2.486c-0.787-1.054-1.37-2.275-1.749-3.666c-0.379-1.391-0.569-2.857-0.569-4.402
		c0-1.434,0.19-2.838,0.569-4.214c0.379-1.376,0.962-2.604,1.749-3.687c0.787-1.081,1.805-1.952,3.056-2.612
		c1.25-0.659,2.732-0.99,4.446-0.99c1.742,0,3.23,0.352,4.467,1.054c1.236,0.702,2.24,1.621,3.013,2.76
		c0.772,1.137,1.327,2.443,1.665,3.918c0.337,1.475,0.478,2.971,0.421,4.487H80.42C80.42,129.231,80.553,130.222,80.82,131.246z
		 M93.969,123.137c-0.323-0.928-0.78-1.749-1.37-2.465c-0.59-0.717-1.307-1.293-2.149-1.729s-1.798-0.652-2.866-0.652
		c-1.096,0-2.065,0.217-2.908,0.652s-1.559,1.012-2.149,1.729c-0.59,0.716-1.061,1.545-1.412,2.485
		c-0.352,0.941-0.583,1.903-0.695,2.886h14.076C94.467,125.032,94.292,124.062,93.969,123.137z"/>
</g>
<g enable-background="new    ">
	<path fill="#272425" d="M99.974,116.689v3.666h0.126c0.702-1.349,1.623-2.402,2.76-3.16c1.138-0.759,2.592-1.138,4.362-1.138
		c1.433,0,2.732,0.352,3.898,1.054c1.166,0.702,1.945,1.77,2.339,3.201c0.646-1.432,1.601-2.499,2.866-3.201
		c1.264-0.702,2.613-1.054,4.045-1.054c4.804,0,7.207,2.542,7.207,7.626v14.747h-2.655v-14.62c0-1.798-0.379-3.167-1.138-4.108
		c-0.758-0.94-2.093-1.411-4.003-1.411c-1.152,0-2.107,0.217-2.866,0.652s-1.363,1.019-1.812,1.749
		c-0.45,0.73-0.766,1.565-0.948,2.507c-0.183,0.941-0.274,1.917-0.274,2.928v12.304h-2.655v-14.747c0-0.73-0.078-1.426-0.231-2.086
		c-0.155-0.659-0.408-1.235-0.759-1.727c-0.352-0.492-0.822-0.878-1.412-1.159c-0.59-0.28-1.307-0.421-2.149-0.421
		c-1.124,0-2.101,0.203-2.929,0.61c-0.829,0.407-1.503,0.97-2.023,1.686c-0.52,0.716-0.906,1.56-1.159,2.528
		c-0.253,0.969-0.379,2.029-0.379,3.181v12.135h-2.655v-21.741H99.974z"/>
</g>
<g enable-background="new    ">
	<path fill="#272425" d="M134.446,108.348v12.471h0.084c0.281-0.785,0.681-1.475,1.201-2.064c0.52-0.59,1.117-1.088,1.791-1.496
		c0.674-0.406,1.405-0.709,2.191-0.905c0.786-0.196,1.573-0.295,2.36-0.295c1.657,0,3.097,0.31,4.319,0.927
		c1.222,0.618,2.24,1.453,3.055,2.507s1.418,2.275,1.812,3.666c0.393,1.39,0.59,2.858,0.59,4.403s-0.197,3.012-0.59,4.402
		c-0.394,1.391-0.998,2.612-1.812,3.666c-0.815,1.053-1.833,1.882-3.055,2.486c-1.222,0.604-2.662,0.905-4.319,0.905
		c-1.77,0-3.351-0.407-4.741-1.222s-2.396-1.98-3.013-3.497h-0.084v4.129h-2.444v-30.083H134.446z M148.796,124.211
		c-0.268-1.109-0.689-2.1-1.265-2.971c-0.576-0.871-1.313-1.58-2.212-2.128c-0.899-0.548-1.98-0.821-3.245-0.821
		c-1.405,0-2.592,0.273-3.561,0.821c-0.97,0.548-1.756,1.257-2.36,2.128c-0.604,0.871-1.04,1.861-1.306,2.971
		c-0.268,1.109-0.4,2.227-0.4,3.35s0.133,2.24,0.4,3.35c0.267,1.109,0.702,2.1,1.306,2.971c0.604,0.87,1.391,1.58,2.36,2.127
		c0.969,0.548,2.156,0.822,3.561,0.822c1.264,0,2.345-0.274,3.245-0.822c0.899-0.547,1.636-1.257,2.212-2.127
		c0.576-0.871,0.997-1.861,1.265-2.971c0.267-1.109,0.4-2.227,0.4-3.35S149.062,125.32,148.796,124.211z"/>
	<path fill="#272425" d="M169.572,116.984c1.278,0.618,2.353,1.447,3.224,2.486c0.871,1.039,1.531,2.254,1.981,3.645
		c0.449,1.391,0.674,2.872,0.674,4.445c0,1.572-0.226,3.055-0.674,4.445c-0.45,1.39-1.11,2.605-1.981,3.645
		c-0.871,1.039-1.946,1.86-3.224,2.465c-1.279,0.604-2.747,0.905-4.404,0.905c-1.658,0-3.126-0.302-4.404-0.905
		c-1.279-0.604-2.353-1.426-3.224-2.465c-0.871-1.039-1.532-2.255-1.981-3.645c-0.45-1.391-0.674-2.873-0.674-4.445
		c0-1.573,0.225-3.055,0.674-4.445c0.449-1.391,1.11-2.605,1.981-3.645c0.871-1.039,1.945-1.868,3.224-2.486
		c1.278-0.617,2.746-0.927,4.404-0.927C166.825,116.058,168.293,116.367,169.572,116.984z M161.838,119.092
		c-0.956,0.533-1.749,1.236-2.381,2.105c-0.632,0.871-1.11,1.861-1.433,2.971c-0.323,1.11-0.484,2.24-0.484,3.393
		s0.161,2.282,0.484,3.391c0.323,1.111,0.801,2.101,1.433,2.971c0.632,0.871,1.425,1.574,2.381,2.107
		c0.955,0.533,2.065,0.801,3.33,0.801c1.264,0,2.374-0.268,3.329-0.801c0.955-0.533,1.749-1.236,2.381-2.107
		c0.632-0.87,1.11-1.859,1.433-2.971c0.322-1.108,0.484-2.238,0.484-3.391s-0.162-2.282-0.484-3.393
		c-0.323-1.109-0.801-2.1-1.433-2.971c-0.632-0.869-1.426-1.572-2.381-2.105c-0.956-0.533-2.065-0.801-3.329-0.801
		C163.903,118.291,162.793,118.559,161.838,119.092z"/>
	<path fill="#272425" d="M194.583,138.431v-3.919h-0.084c-0.703,1.461-1.722,2.578-3.056,3.35c-1.334,0.773-2.817,1.159-4.446,1.159
		c-1.377,0-2.55-0.189-3.519-0.569c-0.969-0.379-1.756-0.919-2.36-1.621c-0.604-0.702-1.047-1.56-1.328-2.57
		c-0.281-1.012-0.421-2.163-0.421-3.455v-14.115h2.655v14.157c0.056,1.966,0.512,3.455,1.37,4.466
		c0.856,1.012,2.339,1.518,4.446,1.518c1.152,0,2.135-0.246,2.95-0.738c0.814-0.49,1.489-1.144,2.022-1.959
		c0.534-0.814,0.927-1.748,1.18-2.802s0.379-2.128,0.379-3.224v-11.418h2.655v21.741H194.583z"/>
	<path fill="#272425" d="M204.486,116.689v5.098h0.084c0.674-1.77,1.721-3.131,3.14-4.086c1.418-0.955,3.111-1.391,5.078-1.307
		v2.654c-1.208-0.056-2.304,0.105-3.287,0.484c-0.984,0.379-1.833,0.921-2.55,1.623c-0.716,0.702-1.271,1.537-1.665,2.506
		c-0.394,0.97-0.59,2.03-0.59,3.182v11.587h-2.655v-21.741H204.486z"/>
</g>
<g enable-background="new    ">
	<path fill="#272425" d="M229.961,141.001c-0.352,1.292-0.906,2.388-1.665,3.286c-0.759,0.898-1.749,1.587-2.971,2.064
		s-2.718,0.717-4.488,0.717c-1.096,0-2.164-0.127-3.203-0.379c-1.04-0.254-1.974-0.646-2.803-1.18
		c-0.829-0.535-1.517-1.216-2.065-2.044c-0.548-0.829-0.864-1.819-0.948-2.971h2.655c0.14,0.814,0.414,1.496,0.822,2.044
		c0.407,0.547,0.898,0.99,1.475,1.326c0.576,0.338,1.215,0.584,1.917,0.738s1.418,0.231,2.149,0.231
		c2.472,0,4.256-0.702,5.352-2.106c1.096-1.405,1.644-3.428,1.644-6.067v-2.95h-0.084c-0.619,1.35-1.524,2.431-2.718,3.245
		c-1.195,0.815-2.592,1.222-4.193,1.222c-1.742,0-3.231-0.287-4.467-0.863c-1.237-0.576-2.255-1.369-3.056-2.381
		s-1.384-2.197-1.749-3.561c-0.365-1.361-0.548-2.815-0.548-4.361c0-1.488,0.217-2.899,0.653-4.234
		c0.436-1.334,1.067-2.499,1.896-3.496c0.829-0.997,1.854-1.784,3.077-2.359c1.222-0.576,2.619-0.864,4.193-0.864
		c0.814,0,1.581,0.112,2.297,0.337s1.37,0.541,1.959,0.948c0.59,0.407,1.117,0.878,1.581,1.411c0.463,0.534,0.822,1.096,1.075,1.686
		h0.084v-3.75h2.655v19.972C230.488,138.262,230.312,139.709,229.961,141.001z M223.871,135.207c0.871-0.49,1.602-1.137,2.191-1.938
		c0.59-0.801,1.033-1.721,1.328-2.76s0.442-2.107,0.442-3.203c0-1.066-0.126-2.134-0.379-3.201c-0.252-1.067-0.66-2.037-1.222-2.908
		c-0.562-0.869-1.286-1.572-2.17-2.105c-0.885-0.533-1.96-0.801-3.224-0.801s-2.346,0.26-3.245,0.779
		c-0.899,0.52-1.644,1.201-2.233,2.043c-0.59,0.843-1.019,1.806-1.285,2.887c-0.268,1.082-0.4,2.184-0.4,3.307
		c0,1.096,0.14,2.164,0.421,3.203c0.28,1.039,0.716,1.959,1.306,2.76c0.59,0.801,1.334,1.447,2.234,1.938
		c0.899,0.492,1.966,0.738,3.203,0.738C221.989,135.945,223,135.699,223.871,135.207z"/>
	<path fill="#272425" d="M237.504,131.246c0.267,1.026,0.695,1.946,1.285,2.761c0.59,0.815,1.334,1.489,2.233,2.022
		c0.899,0.533,1.981,0.801,3.245,0.801c1.939,0,3.456-0.506,4.551-1.518c1.096-1.011,1.854-2.359,2.276-4.045h2.654
		c-0.562,2.473-1.595,4.383-3.098,5.73s-3.631,2.022-6.384,2.022c-1.714,0-3.196-0.302-4.446-0.905
		c-1.25-0.604-2.269-1.434-3.056-2.486c-0.787-1.054-1.37-2.275-1.749-3.666c-0.379-1.391-0.569-2.857-0.569-4.402
		c0-1.434,0.19-2.838,0.569-4.214c0.379-1.376,0.962-2.604,1.749-3.687c0.787-1.081,1.805-1.952,3.056-2.612
		c1.25-0.659,2.732-0.99,4.446-0.99c1.742,0,3.23,0.352,4.467,1.054c1.235,0.702,2.24,1.621,3.013,2.76
		c0.773,1.137,1.328,2.443,1.665,3.918s0.478,2.971,0.421,4.487h-16.73C237.104,129.231,237.237,130.222,237.504,131.246z
		 M250.652,123.137c-0.322-0.928-0.779-1.749-1.369-2.465c-0.59-0.717-1.307-1.293-2.149-1.729s-1.798-0.652-2.866-0.652
		c-1.096,0-2.065,0.217-2.908,0.652s-1.559,1.012-2.149,1.729c-0.59,0.716-1.061,1.545-1.412,2.485
		c-0.352,0.941-0.583,1.903-0.695,2.886h14.076C251.151,125.032,250.976,124.062,250.652,123.137z"/>
</g>
<g enable-background="new    ">
	<path fill="#272425" d="M269.32,116.984c1.278,0.618,2.354,1.447,3.225,2.486c0.87,1.039,1.531,2.254,1.98,3.645
		s0.674,2.872,0.674,4.445c0,1.572-0.225,3.055-0.674,4.445c-0.449,1.39-1.11,2.605-1.98,3.645c-0.871,1.039-1.946,1.86-3.225,2.465
		c-1.278,0.604-2.746,0.905-4.403,0.905c-1.658,0-3.126-0.302-4.404-0.905c-1.278-0.604-2.353-1.426-3.224-2.465
		s-1.531-2.255-1.98-3.645c-0.45-1.391-0.675-2.873-0.675-4.445c0-1.573,0.225-3.055,0.675-4.445
		c0.449-1.391,1.109-2.605,1.98-3.645s1.945-1.868,3.224-2.486c1.278-0.617,2.746-0.927,4.404-0.927
		C266.574,116.058,268.042,116.367,269.32,116.984z M261.588,119.092c-0.956,0.533-1.75,1.236-2.381,2.105
		c-0.633,0.871-1.111,1.861-1.434,2.971c-0.323,1.11-0.484,2.24-0.484,3.393s0.161,2.282,0.484,3.391
		c0.322,1.111,0.801,2.101,1.434,2.971c0.631,0.871,1.425,1.574,2.381,2.107c0.955,0.533,2.064,0.801,3.329,0.801
		s2.374-0.268,3.329-0.801s1.749-1.236,2.381-2.107c0.633-0.87,1.109-1.859,1.434-2.971c0.322-1.108,0.484-2.238,0.484-3.391
		s-0.162-2.282-0.484-3.393c-0.324-1.109-0.801-2.1-1.434-2.971c-0.632-0.869-1.426-1.572-2.381-2.105s-2.064-0.801-3.329-0.801
		S262.543,118.559,261.588,119.092z"/>
</g>
<g enable-background="new    ">
	<path fill="#272425" d="M281.058,108.348v4.255h-2.655v-4.255H281.058z M281.058,116.689v21.741h-2.655v-21.741H281.058z"/>
</g>
<g enable-background="new    ">
	<path fill="#272425" d="M297.83,120.924c-0.31-0.604-0.724-1.102-1.243-1.496c-0.521-0.393-1.116-0.68-1.791-0.863
		c-0.675-0.182-1.391-0.273-2.149-0.273c-0.59,0-1.188,0.062-1.791,0.189c-0.604,0.126-1.159,0.337-1.664,0.632
		c-0.506,0.295-0.914,0.681-1.223,1.159c-0.31,0.478-0.464,1.067-0.464,1.77c0,0.59,0.147,1.088,0.442,1.495
		s0.668,0.752,1.117,1.032c0.449,0.281,0.941,0.514,1.475,0.695c0.533,0.184,1.025,0.33,1.475,0.442l3.541,0.801
		c0.758,0.112,1.51,0.315,2.254,0.61s1.404,0.682,1.98,1.159s1.047,1.067,1.412,1.77s0.548,1.531,0.548,2.485
		c0,1.18-0.267,2.186-0.8,3.014c-0.535,0.828-1.217,1.502-2.045,2.021c-0.828,0.521-1.764,0.893-2.803,1.117
		s-2.064,0.337-3.076,0.337c-2.557,0-4.629-0.604-6.216-1.812c-1.587-1.207-2.493-3.146-2.718-5.814h2.654
		c0.112,1.798,0.766,3.153,1.96,4.066c1.194,0.912,2.677,1.369,4.446,1.369c0.646,0,1.312-0.07,2.002-0.211
		c0.688-0.141,1.327-0.379,1.917-0.717c0.591-0.337,1.075-0.765,1.454-1.285c0.379-0.52,0.568-1.158,0.568-1.916
		c0-0.646-0.133-1.188-0.4-1.623c-0.267-0.436-0.625-0.801-1.074-1.096s-0.963-0.54-1.538-0.736
		c-0.576-0.197-1.159-0.365-1.749-0.506l-3.414-0.759c-0.871-0.225-1.672-0.484-2.401-0.779c-0.731-0.295-1.37-0.659-1.917-1.096
		c-0.549-0.435-0.977-0.97-1.286-1.601c-0.31-0.633-0.464-1.412-0.464-2.339c0-1.096,0.246-2.036,0.738-2.823
		c0.49-0.785,1.131-1.418,1.917-1.896c0.786-0.477,1.665-0.828,2.634-1.053c0.97-0.225,1.932-0.337,2.887-0.337
		c1.096,0,2.114,0.141,3.056,0.421c0.94,0.281,1.771,0.717,2.486,1.307s1.286,1.32,1.707,2.191s0.659,1.896,0.716,3.075h-2.654
		C298.308,122.237,298.139,121.528,297.83,120.924z"/>
</g>
<g enable-background="new    ">
	<path fill="#272425" d="M306.742,131.246c0.267,1.026,0.695,1.946,1.285,2.761c0.59,0.815,1.334,1.489,2.233,2.022
		s1.981,0.801,3.245,0.801c1.938,0,3.455-0.506,4.551-1.518c1.096-1.011,1.855-2.359,2.276-4.045h2.655
		c-0.562,2.473-1.596,4.383-3.098,5.73c-1.504,1.348-3.632,2.022-6.385,2.022c-1.714,0-3.196-0.302-4.445-0.905
		c-1.251-0.604-2.27-1.434-3.057-2.486c-0.786-1.054-1.369-2.275-1.748-3.666s-0.569-2.857-0.569-4.402
		c0-1.434,0.19-2.838,0.569-4.214s0.962-2.604,1.748-3.687c0.787-1.081,1.806-1.952,3.057-2.612c1.249-0.659,2.731-0.99,4.445-0.99
		c1.742,0,3.23,0.352,4.467,1.054s2.24,1.621,3.014,2.76c0.772,1.137,1.327,2.443,1.664,3.918c0.338,1.475,0.479,2.971,0.422,4.487
		h-16.73C306.342,129.231,306.475,130.222,306.742,131.246z M319.891,123.137c-0.323-0.928-0.779-1.749-1.369-2.465
		c-0.591-0.717-1.307-1.293-2.15-1.729c-0.842-0.436-1.798-0.652-2.865-0.652c-1.096,0-2.064,0.217-2.908,0.652
		c-0.842,0.436-1.559,1.012-2.148,1.729c-0.59,0.716-1.061,1.545-1.412,2.485c-0.352,0.941-0.584,1.903-0.695,2.886h14.076
		C320.389,125.032,320.213,124.062,319.891,123.137z"/>
</g>
</svg>
