<?xml version="1.0" encoding="utf-8"?>
<!-- Generator: Adobe Illustrator 16.0.4, SVG Export Plug-In . SVG Version: 6.00 Build 0)  -->
<!DOCTYPE svg PUBLIC "-//W3C//DTD SVG 1.1//EN" "http://www.w3.org/Graphics/SVG/1.1/DTD/svg11.dtd">
<svg version="1.1" id="Layer_1" xmlns="http://www.w3.org/2000/svg" xmlns:xlink="http://www.w3.org/1999/xlink" x="0px" y="0px"
	 width="595.275px" height="141.732px" viewBox="0 0 595.275 141.732" enable-background="new 0 0 595.275 141.732"
	 xml:space="preserve">
<g>
	<rect x="129.423" y="23.949" width="2.173" height="16.083"/>
	<path d="M145.058,40.032h-1.971V32.82c0-2.039-0.583-3.07-2.509-3.07c-1.12,0-3.091,0.718-3.091,3.898v6.384h-1.971V28.317h1.859
		v1.658h0.044c0.426-0.627,1.524-1.994,3.54-1.994c1.814,0,4.099,0.739,4.099,4.077V40.032z"/>
	<path d="M150.837,29.952v7.616c0,0.919,0.784,0.919,1.187,0.919h0.694v1.545c-0.716,0.067-1.276,0.157-1.477,0.157
		c-1.95,0-2.375-1.098-2.375-2.509v-7.728h-1.591v-1.635h1.591v-3.27h1.971v3.27h1.881v1.635H150.837z"/>
	<path d="M163.067,36.358c-0.067,0.874-1.164,2.307-3.023,2.307c-2.263,0-3.405-1.411-3.405-3.852h8.556
		c0-4.144-1.658-6.832-5.04-6.832c-3.874,0-5.622,2.889-5.622,6.518c0,3.382,1.949,5.869,5.241,5.869
		c1.882,0,2.643-0.448,3.181-0.806c1.479-0.986,2.016-2.643,2.083-3.204H163.067z M156.639,33.245c0-1.814,1.433-3.495,3.247-3.495
		c2.397,0,3.159,1.681,3.271,3.495H156.639z"/>
	<path d="M170.235,40.032h-1.971V28.317h1.859v1.949h0.045c0.784-1.366,1.814-2.285,3.293-2.285c0.246,0,0.358,0.022,0.515,0.067
		v2.039h-0.74c-1.836,0-3.001,1.433-3.001,3.135V40.032z"/>
	<path d="M186.004,40.032h-1.971V32.82c0-2.039-0.582-3.07-2.509-3.07c-1.12,0-3.091,0.718-3.091,3.898v6.384h-1.971V28.317h1.86
		v1.658h0.044c0.426-0.627,1.523-1.994,3.539-1.994c1.814,0,4.099,0.739,4.099,4.077V40.032z"/>
	<path d="M191.111,31.879c0.134-0.896,0.448-2.263,2.688-2.263c1.859,0,2.755,0.672,2.755,1.904c0,1.165-0.559,1.344-1.03,1.389
		l-3.248,0.403c-3.27,0.403-3.561,2.688-3.561,3.673c0,2.016,1.523,3.383,3.673,3.383c2.285,0,3.472-1.075,4.234-1.904
		c0.067,0.896,0.336,1.792,2.083,1.792c0.448,0,0.739-0.135,1.075-0.224v-1.433c-0.224,0.044-0.47,0.089-0.65,0.089
		c-0.403,0-0.649-0.201-0.649-0.694v-6.742c0-3.002-3.405-3.271-4.346-3.271c-2.89,0-4.749,1.098-4.838,3.898H191.111z
		 M196.51,35.978c0,1.568-1.793,2.755-3.629,2.755c-1.479,0-2.128-0.762-2.128-2.039c0-1.478,1.545-1.769,2.509-1.904
		c2.441-0.313,2.934-0.492,3.248-0.739V35.978z"/>
	<path d="M204.685,29.952v7.616c0,0.919,0.784,0.919,1.188,0.919h0.694v1.545c-0.716,0.067-1.277,0.157-1.478,0.157
		c-1.949,0-2.374-1.098-2.374-2.509v-7.728h-1.591v-1.635h1.591v-3.27h1.97v3.27h1.882v1.635H204.685z"/>
	<path d="M208.986,23.95h1.972v2.24h-1.972V23.95z M210.958,40.032h-1.972V28.317h1.972V40.032z"/>
	<path d="M213.69,34.163c0,3.024,1.702,6.183,5.443,6.183s5.443-3.159,5.443-6.183c0-3.023-1.702-6.182-5.443-6.182
		S213.69,31.14,213.69,34.163 M215.728,34.163c0-1.568,0.583-4.479,3.405-4.479s3.405,2.911,3.405,4.479
		c0,1.568-0.583,4.48-3.405,4.48S215.728,35.731,215.728,34.163"/>
	<path d="M236.806,40.032h-1.971V32.82c0-2.039-0.582-3.07-2.508-3.07c-1.121,0-3.092,0.718-3.092,3.898v6.384h-1.971V28.317h1.859
		v1.658h0.045c0.425-0.627,1.523-1.994,3.539-1.994c1.815,0,4.099,0.739,4.099,4.077V40.032z"/>
	<path d="M241.913,31.879c0.135-0.896,0.449-2.263,2.688-2.263c1.859,0,2.755,0.672,2.755,1.904c0,1.165-0.56,1.344-1.03,1.389
		l-3.247,0.403c-3.271,0.403-3.562,2.688-3.562,3.673c0,2.016,1.523,3.383,3.673,3.383c2.285,0,3.472-1.075,4.234-1.904
		c0.067,0.896,0.336,1.792,2.083,1.792c0.448,0,0.739-0.135,1.075-0.224v-1.433c-0.224,0.044-0.47,0.089-0.65,0.089
		c-0.403,0-0.649-0.201-0.649-0.694v-6.742c0-3.002-3.405-3.271-4.345-3.271c-2.89,0-4.749,1.098-4.838,3.898H241.913z
		 M247.312,35.978c0,1.568-1.793,2.755-3.629,2.755c-1.479,0-2.128-0.762-2.128-2.039c0-1.478,1.546-1.769,2.509-1.904
		c2.442-0.313,2.934-0.492,3.248-0.739V35.978z"/>
	<rect x="253.113" y="23.949" width="1.972" height="16.083"/>
	<polygon points="267.807,40.032 265.634,40.032 265.634,23.949 276.767,23.949 276.767,25.875 267.807,25.875 267.807,30.803 
		275.692,30.803 275.692,32.729 267.807,32.729 	"/>
	<path d="M286.6,36.358c-0.067,0.874-1.164,2.307-3.023,2.307c-2.263,0-3.405-1.411-3.405-3.852h8.556
		c0-4.144-1.658-6.832-5.039-6.832c-3.875,0-5.623,2.889-5.623,6.518c0,3.382,1.949,5.869,5.241,5.869
		c1.882,0,2.643-0.448,3.181-0.806c1.479-0.986,2.016-2.643,2.084-3.204H286.6z M280.172,33.245c0-1.814,1.433-3.495,3.248-3.495
		c2.396,0,3.158,1.681,3.27,3.495H280.172z"/>
	<path d="M301.248,23.949h-1.971v6.026h-0.043c-0.471-0.672-1.368-1.994-3.496-1.994c-3.113,0-4.883,2.554-4.883,5.847
		c0,2.799,1.165,6.54,5.152,6.54c1.143,0,2.486-0.359,3.338-1.949h0.045v1.613h1.857V23.949z M292.895,34.141
		c0-1.501,0.156-4.39,3.203-4.39c2.846,0,3.158,3.068,3.158,4.972c0,3.114-1.949,3.943-3.202,3.943
		C293.903,38.666,292.895,36.717,292.895,34.141"/>
	<path d="M312.404,36.358c-0.068,0.874-1.164,2.307-3.023,2.307c-2.262,0-3.404-1.411-3.404-3.852h8.555
		c0-4.144-1.656-6.832-5.039-6.832c-3.875,0-5.621,2.889-5.621,6.518c0,3.382,1.949,5.869,5.242,5.869
		c1.881,0,2.641-0.448,3.178-0.806c1.48-0.986,2.018-2.643,2.084-3.204H312.404z M305.977,33.245c0-1.814,1.434-3.495,3.248-3.495
		c2.396,0,3.156,1.681,3.27,3.495H305.977z"/>
	<path d="M319.572,40.032h-1.971V28.317h1.857v1.949h0.045c0.785-1.366,1.816-2.285,3.293-2.285c0.246,0,0.359,0.022,0.518,0.067
		v2.039h-0.74c-1.836,0-3.002,1.433-3.002,3.135V40.032z"/>
	<path d="M326.764,31.879c0.133-0.896,0.447-2.263,2.688-2.263c1.859,0,2.754,0.672,2.754,1.904c0,1.165-0.559,1.344-1.029,1.389
		l-3.248,0.403c-3.27,0.403-3.561,2.688-3.561,3.673c0,2.016,1.521,3.383,3.672,3.383c2.285,0,3.473-1.075,4.234-1.904
		c0.066,0.896,0.336,1.792,2.084,1.792c0.447,0,0.738-0.135,1.074-0.224v-1.433c-0.225,0.044-0.471,0.089-0.65,0.089
		c-0.402,0-0.65-0.201-0.65-0.694v-6.742c0-3.002-3.402-3.271-4.344-3.271c-2.891,0-4.75,1.098-4.838,3.898H326.764z M332.16,35.978
		c0,1.568-1.791,2.755-3.627,2.755c-1.479,0-2.129-0.762-2.129-2.039c0-1.478,1.547-1.769,2.51-1.904
		c2.441-0.313,2.934-0.492,3.246-0.739V35.978z"/>
	<path d="M340.338,29.952v7.616c0,0.919,0.783,0.919,1.186,0.919h0.695v1.545c-0.717,0.067-1.277,0.157-1.479,0.157
		c-1.949,0-2.375-1.098-2.375-2.509v-7.728h-1.59v-1.635h1.59v-3.27h1.973v3.27h1.881v1.635H340.338z"/>
	<path d="M344.637,23.95h1.973v2.24h-1.973V23.95z M346.609,40.032h-1.973V28.317h1.973V40.032z"/>
	<path d="M349.342,34.163c0,3.024,1.701,6.183,5.443,6.183c3.74,0,5.443-3.159,5.443-6.183c0-3.023-1.703-6.182-5.443-6.182
		C351.043,27.981,349.342,31.14,349.342,34.163 M351.379,34.163c0-1.568,0.582-4.479,3.406-4.479c2.822,0,3.404,2.911,3.404,4.479
		c0,1.568-0.582,4.48-3.404,4.48C351.961,38.643,351.379,35.731,351.379,34.163"/>
	<path d="M372.457,40.032h-1.971V32.82c0-2.039-0.582-3.07-2.508-3.07c-1.119,0-3.092,0.718-3.092,3.898v6.384h-1.971V28.317h1.859
		v1.658h0.045c0.424-0.627,1.523-1.994,3.539-1.994c1.814,0,4.098,0.739,4.098,4.077V40.032z"/>
	<path d="M128.169,60.551c0,3.024,1.702,6.183,5.442,6.183c3.741,0,5.443-3.159,5.443-6.183c0-3.023-1.702-6.182-5.443-6.182
		C129.871,54.369,128.169,57.528,128.169,60.551 M130.207,60.551c0-1.568,0.582-4.48,3.404-4.48c2.823,0,3.405,2.912,3.405,4.48
		s-0.582,4.481-3.405,4.481C130.789,65.032,130.207,62.119,130.207,60.551"/>
	<path d="M144.184,56.34v10.08h-1.97V56.34H140.6v-1.635h1.614v-2.016c0-1.769,1.119-2.576,3.045-2.576
		c0.292,0,0.583,0.023,0.897,0.045v1.77c-0.247-0.023-0.561-0.045-0.807-0.045c-0.851,0-1.165,0.425-1.165,1.366v1.456h1.972v1.635
		H144.184z"/>
	<path d="M157.781,59.521h5.264c2.598,0,2.867,1.545,2.867,2.867c0,0.605,0.067,3.046,0.381,4.032h2.665v-0.359
		c-0.672-0.381-0.784-0.716-0.806-1.612l-0.135-2.912c-0.089-2.24-1.007-2.643-1.926-3.024c1.031-0.605,2.24-1.478,2.24-3.853
		c0-3.404-2.643-4.323-5.286-4.323h-7.437V66.42h2.173V59.521z M157.781,52.197h5.421c1.075,0,2.889,0.201,2.889,2.687
		c0,2.374-1.68,2.778-3.271,2.778h-5.039V52.197z"/>
	<path d="M179.687,62.746c-0.067,0.874-1.164,2.307-3.023,2.307c-2.263,0-3.405-1.411-3.405-3.853h8.556
		c0-4.143-1.658-6.831-5.039-6.831c-3.875,0-5.623,2.89-5.623,6.518c0,3.382,1.949,5.869,5.241,5.869
		c1.882,0,2.643-0.448,3.182-0.807c1.478-0.986,2.015-2.642,2.082-3.203H179.687z M173.259,59.633c0-1.815,1.433-3.494,3.247-3.494
		c2.397,0,3.159,1.679,3.271,3.494H173.259z"/>
	<path d="M194.337,50.337h-1.971v6.026h-0.045c-0.47-0.672-1.367-1.994-3.495-1.994c-3.113,0-4.883,2.553-4.883,5.846
		c0,2.8,1.165,6.541,5.152,6.541c1.143,0,2.487-0.359,3.338-1.948h0.045v1.612h1.859V50.337z M185.982,60.529
		c0-1.501,0.156-4.391,3.203-4.391c2.845,0,3.158,3.069,3.158,4.973c0,3.113-1.949,3.942-3.203,3.942
		C186.99,65.053,185.982,63.105,185.982,60.529"/>
	<path d="M215.728,55.176c-0.605-2.823-2.957-3.338-4.502-3.338c-2.912,0-5.263,2.15-5.263,6.384c0,3.785,1.343,6.697,5.33,6.697
		c1.412,0,3.853-0.672,4.592-4.412h2.106c-0.896,6.069-5.824,6.338-7.034,6.338c-3.651,0-7.235-2.374-7.235-8.556
		c0-4.95,2.823-8.378,7.504-8.378c4.144,0,6.295,2.576,6.608,5.265H215.728z"/>
	<path d="M223.053,66.42h-1.971V54.705h1.859v1.949h0.045c0.784-1.367,1.814-2.285,3.292-2.285c0.247,0,0.359,0.022,0.516,0.068
		v2.038h-0.74c-1.837,0-3.001,1.433-3.001,3.136V66.42z"/>
	<path d="M228.048,60.551c0,3.024,1.702,6.183,5.443,6.183c3.741,0,5.443-3.159,5.443-6.183c0-3.023-1.702-6.182-5.443-6.182
		C229.75,54.369,228.048,57.528,228.048,60.551 M230.086,60.551c0-1.568,0.583-4.48,3.405-4.48c2.822,0,3.405,2.912,3.405,4.48
		s-0.583,4.481-3.405,4.481C230.669,65.032,230.086,62.119,230.086,60.551"/>
	<path d="M248.275,58.042c-0.023-0.739-0.291-1.97-2.778-1.97c-0.604,0-2.329,0.201-2.329,1.657c0,0.963,0.605,1.187,2.128,1.568
		l1.97,0.492c2.442,0.605,3.293,1.502,3.293,3.091c0,2.42-1.993,3.876-4.636,3.876c-4.637,0-4.973-2.688-5.04-4.099h1.904
		c0.067,0.918,0.336,2.396,3.113,2.396c1.412,0,2.689-0.56,2.689-1.859c0-0.941-0.65-1.254-2.33-1.68l-2.285-0.56
		c-1.635-0.403-2.71-1.232-2.71-2.844c0-2.576,2.128-3.741,4.435-3.741c4.189,0,4.48,3.091,4.48,3.673H248.275z"/>
	<path d="M259.922,58.042c-0.022-0.739-0.291-1.97-2.777-1.97c-0.605,0-2.329,0.201-2.329,1.657c0,0.963,0.605,1.187,2.127,1.568
		l1.972,0.492c2.441,0.605,3.293,1.502,3.293,3.091c0,2.42-1.995,3.876-4.638,3.876c-4.636,0-4.972-2.688-5.04-4.099h1.905
		c0.067,0.918,0.336,2.396,3.113,2.396c1.411,0,2.688-0.56,2.688-1.859c0-0.941-0.65-1.254-2.329-1.68l-2.285-0.56
		c-1.635-0.403-2.71-1.232-2.71-2.844c0-2.576,2.127-3.741,4.435-3.741c4.189,0,4.48,3.091,4.48,3.673H259.922z"/>
	<path d="M273.34,58.267c0.134-0.896,0.448-2.263,2.688-2.263c1.859,0,2.755,0.672,2.755,1.904c0,1.165-0.56,1.344-1.03,1.389
		l-3.248,0.403c-3.27,0.403-3.562,2.688-3.562,3.674c0,2.015,1.524,3.382,3.674,3.382c2.284,0,3.472-1.076,4.233-1.904
		c0.068,0.895,0.336,1.792,2.083,1.792c0.448,0,0.739-0.134,1.075-0.224v-1.434c-0.224,0.046-0.471,0.089-0.65,0.089
		c-0.403,0-0.65-0.201-0.65-0.694v-6.742c0-3.002-3.404-3.27-4.345-3.27c-2.89,0-4.749,1.098-4.838,3.898H273.34z M278.738,62.366
		c0,1.568-1.792,2.755-3.628,2.755c-1.479,0-2.128-0.762-2.128-2.039c0-1.478,1.545-1.769,2.509-1.904
		c2.441-0.313,2.934-0.492,3.247-0.739V62.366z"/>
	<path d="M294.037,66.42h-1.971v-7.213c0-2.038-0.582-3.068-2.509-3.068c-1.119,0-3.091,0.716-3.091,3.897v6.384h-1.971V54.705
		h1.859v1.658h0.045c0.426-0.628,1.523-1.994,3.539-1.994c1.814,0,4.099,0.739,4.099,4.076V66.42z"/>
	<path d="M307.119,50.337h-1.973v6.026h-0.043c-0.471-0.672-1.367-1.994-3.494-1.994c-3.115,0-4.885,2.553-4.885,5.846
		c0,2.8,1.166,6.541,5.152,6.541c1.143,0,2.486-0.359,3.338-1.948h0.045v1.612h1.859V50.337z M298.764,60.529
		c0-1.501,0.156-4.391,3.203-4.391c2.844,0,3.158,3.069,3.158,4.973c0,3.113-1.947,3.942-3.203,3.942
		C299.771,65.053,298.764,63.105,298.764,60.529"/>
	<path d="M319.662,59.521h5.264c2.6,0,2.867,1.545,2.867,2.867c0,0.605,0.068,3.046,0.383,4.032h2.664v-0.359
		c-0.674-0.381-0.783-0.716-0.807-1.612l-0.135-2.912c-0.09-2.24-1.008-2.643-1.926-3.024c1.029-0.605,2.24-1.478,2.24-3.853
		c0-3.404-2.643-4.323-5.287-4.323h-7.436V66.42h2.172V59.521z M319.662,52.197h5.422c1.074,0,2.889,0.201,2.889,2.687
		c0,2.374-1.68,2.778-3.271,2.778h-5.039V52.197z"/>
	<path d="M341.568,62.746c-0.066,0.874-1.164,2.307-3.023,2.307c-2.262,0-3.404-1.411-3.404-3.853h8.557
		c0-4.143-1.658-6.831-5.041-6.831c-3.873,0-5.621,2.89-5.621,6.518c0,3.382,1.949,5.869,5.24,5.869
		c1.883,0,2.643-0.448,3.182-0.807c1.479-0.986,2.016-2.642,2.084-3.203H341.568z M335.141,59.633c0-1.815,1.434-3.494,3.248-3.494
		c2.396,0,3.158,1.679,3.27,3.494H335.141z"/>
	<path d="M356.219,50.337h-1.973v6.026h-0.043c-0.471-0.672-1.367-1.994-3.496-1.994c-3.113,0-4.883,2.553-4.883,5.846
		c0,2.8,1.166,6.541,5.152,6.541c1.143,0,2.486-0.359,3.338-1.948h0.045v1.612h1.859V50.337z M347.863,60.529
		c0-1.501,0.156-4.391,3.203-4.391c2.844,0,3.158,3.069,3.158,4.973c0,3.113-1.949,3.942-3.203,3.942
		C348.871,65.053,347.863,63.105,347.863,60.529"/>
	<path d="M377.609,55.176c-0.605-2.823-2.957-3.338-4.502-3.338c-2.912,0-5.262,2.15-5.262,6.384c0,3.785,1.342,6.697,5.33,6.697
		c1.41,0,3.852-0.672,4.592-4.412h2.105c-0.896,6.069-5.824,6.338-7.035,6.338c-3.65,0-7.234-2.374-7.234-8.556
		c0-4.95,2.824-8.378,7.504-8.378c4.143,0,6.295,2.576,6.609,5.265H377.609z"/>
	<path d="M384.934,66.42h-1.971V54.705h1.859v1.949h0.045c0.783-1.367,1.814-2.285,3.293-2.285c0.246,0,0.359,0.022,0.516,0.068
		v2.038h-0.74c-1.836,0-3.002,1.433-3.002,3.136V66.42z"/>
	<path d="M398.576,62.746c-0.068,0.874-1.166,2.307-3.023,2.307c-2.264,0-3.406-1.411-3.406-3.853h8.557
		c0-4.143-1.658-6.831-5.039-6.831c-3.875,0-5.623,2.89-5.623,6.518c0,3.382,1.949,5.869,5.242,5.869
		c1.881,0,2.643-0.448,3.18-0.807c1.479-0.986,2.018-2.642,2.084-3.203H398.576z M392.146,59.633c0-1.815,1.434-3.494,3.248-3.494
		c2.396,0,3.158,1.679,3.27,3.494H392.146z"/>
	<path d="M410.156,58.042c-0.021-0.739-0.291-1.97-2.777-1.97c-0.605,0-2.328,0.201-2.328,1.657c0,0.963,0.604,1.187,2.127,1.568
		l1.971,0.492c2.441,0.605,3.293,1.502,3.293,3.091c0,2.42-1.994,3.876-4.637,3.876c-4.637,0-4.973-2.688-5.041-4.099h1.904
		c0.068,0.918,0.336,2.396,3.113,2.396c1.412,0,2.688-0.56,2.688-1.859c0-0.941-0.648-1.254-2.328-1.68l-2.285-0.56
		c-1.635-0.403-2.711-1.232-2.711-2.844c0-2.576,2.129-3.741,4.436-3.741c4.189,0,4.48,3.091,4.48,3.673H410.156z"/>
	<path d="M422.477,58.647c-0.246-1.568-1.121-2.509-2.779-2.509c-2.439,0-3.225,2.33-3.225,4.413c0,2.016,0.494,4.502,3.203,4.502
		c1.322,0,2.465-0.984,2.801-2.777h1.902c-0.199,1.859-1.344,4.48-4.77,4.48c-3.293,0-5.242-2.487-5.242-5.869
		c0-3.629,1.748-6.518,5.623-6.518c3.068,0,4.234,2.239,4.389,4.278H422.477z"/>
	<path d="M434.773,62.746c-0.068,0.874-1.164,2.307-3.023,2.307c-2.262,0-3.404-1.411-3.404-3.853h8.555
		c0-4.143-1.656-6.831-5.039-6.831c-3.875,0-5.621,2.89-5.621,6.518c0,3.382,1.947,5.869,5.24,5.869
		c1.881,0,2.643-0.448,3.182-0.807c1.479-0.986,2.016-2.642,2.082-3.203H434.773z M428.346,59.633c0-1.815,1.434-3.494,3.248-3.494
		c2.396,0,3.156,1.679,3.27,3.494H428.346z"/>
	<path d="M449.244,66.42h-1.973v-7.213c0-2.038-0.582-3.068-2.508-3.068c-1.119,0-3.092,0.716-3.092,3.897v6.384h-1.971V54.705
		h1.859v1.658h0.045c0.426-0.628,1.523-1.994,3.539-1.994c1.814,0,4.1,0.739,4.1,4.076V66.42z"/>
	<path d="M455.023,56.34v7.616c0,0.918,0.785,0.918,1.186,0.918h0.695v1.546c-0.717,0.067-1.277,0.157-1.479,0.157
		c-1.949,0-2.375-1.098-2.375-2.509V56.34h-1.59v-1.635h1.59v-3.27h1.973v3.27h1.881v1.635H455.023z"/>
	<path d="M475.9,55.041c-0.113-2.486-2.174-3.27-3.988-3.27c-1.367,0-3.674,0.38-3.674,2.822c0,1.367,0.963,1.815,1.904,2.039
		l4.592,1.052c2.084,0.493,3.652,1.747,3.652,4.301c0,3.808-3.541,4.86-6.295,4.86c-2.98,0-4.145-0.895-4.861-1.545
		c-1.365-1.232-1.635-2.576-1.635-4.077h2.039c0,2.912,2.375,3.763,4.434,3.763c1.568,0,4.213-0.403,4.213-2.71
		c0-1.68-0.785-2.217-3.428-2.845l-3.293-0.761c-1.053-0.247-3.428-0.986-3.428-3.786c0-2.508,1.637-4.973,5.533-4.973
		c5.621,0,6.184,3.361,6.271,5.13H475.9z"/>
	<path d="M480.67,60.551c0,3.024,1.703,6.183,5.443,6.183c3.742,0,5.443-3.159,5.443-6.183c0-3.023-1.701-6.182-5.443-6.182
		C482.373,54.369,480.67,57.528,480.67,60.551 M482.709,60.551c0-1.568,0.582-4.48,3.404-4.48s3.404,2.912,3.404,4.48
		s-0.582,4.481-3.404,4.481S482.709,62.119,482.709,60.551"/>
	<path d="M501.568,58.647c-0.246-1.568-1.119-2.509-2.777-2.509c-2.441,0-3.225,2.33-3.225,4.413c0,2.016,0.492,4.502,3.203,4.502
		c1.322,0,2.465-0.984,2.799-2.777h1.904c-0.201,1.859-1.344,4.48-4.77,4.48c-3.293,0-5.242-2.487-5.242-5.869
		c0-3.629,1.746-6.518,5.621-6.518c3.07,0,4.234,2.239,4.391,4.278H501.568z"/>
	<path d="M505.938,50.338h1.971v2.24h-1.971V50.338z M507.908,66.42h-1.971V54.705h1.971V66.42z"/>
	<path d="M519.287,62.746c-0.066,0.874-1.166,2.307-3.023,2.307c-2.264,0-3.406-1.411-3.406-3.853h8.557
		c0-4.143-1.656-6.831-5.039-6.831c-3.875,0-5.623,2.89-5.623,6.518c0,3.382,1.949,5.869,5.242,5.869
		c1.881,0,2.643-0.448,3.182-0.807c1.479-0.986,2.016-2.642,2.082-3.203H519.287z M512.857,59.633c0-1.815,1.436-3.494,3.25-3.494
		c2.395,0,3.158,1.679,3.27,3.494H512.857z"/>
	<path d="M526.635,56.34v7.616c0,0.918,0.783,0.918,1.186,0.918h0.695v1.546c-0.717,0.067-1.277,0.157-1.479,0.157
		c-1.949,0-2.375-1.098-2.375-2.509V56.34h-1.59v-1.635h1.59v-3.27h1.973v3.27h1.881v1.635H526.635z"/>
	<path d="M530.936,50.338h1.971v2.24h-1.971V50.338z M532.906,66.42h-1.971V54.705h1.971V66.42z"/>
	<path d="M544.285,62.746c-0.068,0.874-1.166,2.307-3.023,2.307c-2.264,0-3.406-1.411-3.406-3.853h8.557
		c0-4.143-1.656-6.831-5.039-6.831c-3.875,0-5.623,2.89-5.623,6.518c0,3.382,1.949,5.869,5.242,5.869
		c1.881,0,2.643-0.448,3.18-0.807c1.479-0.986,2.018-2.642,2.084-3.203H544.285z M537.855,59.633c0-1.815,1.434-3.494,3.248-3.494
		c2.396,0,3.158,1.679,3.27,3.494H537.855z"/>
	<path d="M555.865,58.042c-0.021-0.739-0.291-1.97-2.777-1.97c-0.605,0-2.328,0.201-2.328,1.657c0,0.963,0.604,1.187,2.127,1.568
		l1.971,0.492c2.441,0.605,3.293,1.502,3.293,3.091c0,2.42-1.994,3.876-4.637,3.876c-4.637,0-4.973-2.688-5.041-4.099h1.904
		c0.068,0.918,0.336,2.396,3.113,2.396c1.412,0,2.689-0.56,2.689-1.859c0-0.941-0.65-1.254-2.33-1.68l-2.285-0.56
		c-1.635-0.403-2.711-1.232-2.711-2.844c0-2.576,2.129-3.741,4.436-3.741c4.189,0,4.48,3.091,4.48,3.673H555.865z"/>
	<rect x="34.875" y="20.584" fill="#FFFFFF" width="85.413" height="48.956"/>
	<polygon fill="#C20E1A" points="56.528,50.03 45.417,50.03 45.417,40.506 56.528,40.506 56.527,40.5 56.527,29.388 66.051,29.388 
		66.051,40.5 66.051,40.504 77.163,40.504 77.163,50.028 66.051,50.028 66.051,50.027 66.051,61.139 56.527,61.139 56.527,50.027 	
		"/>
	<path fill="#C20E1A" d="M91.898,45.094c0-7.4,5.999-13.4,13.399-13.4c1.648,0,3.225,0.299,4.684,0.842
		c-2.741-2.168-6.204-3.463-9.971-3.463c-8.879,0-16.079,7.198-16.079,16.078c0,8.88,7.2,16.079,16.079,16.079
		c3.892,0,7.462-1.383,10.243-3.683c-1.533,0.61-3.205,0.946-4.956,0.946C97.897,58.493,91.898,52.493,91.898,45.094"/>
	<rect x="38.607" y="24.279" fill="none" stroke="#C20E1A" stroke-width="1.3888" width="78.239" height="41.959"/>
	<g>
		<path fill="#C4281A" d="M133.179,105.098c0,2.308,1.798,3.206,3.838,3.206c1.336,0,3.377-0.389,3.377-2.162
			c0-1.87-2.6-2.186-5.15-2.866c-2.575-0.681-5.174-1.676-5.174-4.932c0-3.546,3.353-5.247,6.486-5.247
			c3.62,0,6.948,1.579,6.948,5.588h-3.692c-0.122-2.09-1.604-2.624-3.425-2.624c-1.214,0-2.624,0.511-2.624,1.968
			c0,1.336,0.826,1.506,5.174,2.623c1.263,0.316,5.15,1.118,5.15,5.053c0,3.183-2.502,5.563-7.215,5.563
			c-3.838,0-7.434-1.895-7.385-6.17H133.179z"/>
		<path fill="#C4281A" d="M145.982,93.51h3.449v6.535h0.073c0.875-1.409,2.381-2.09,3.668-2.09c3.668,0,4.591,2.065,4.591,5.175
			v7.725h-3.449v-7.094c0-2.064-0.607-3.085-2.211-3.085c-1.87,0-2.672,1.045-2.672,3.596v6.583h-3.449V93.51z"/>
		<path fill="#C4281A" d="M163.229,105.414c0.097,2.187,1.166,3.183,3.085,3.183c1.385,0,2.502-0.851,2.721-1.628h3.037
			c-0.972,2.964-3.037,4.227-5.878,4.227c-3.96,0-6.413-2.721-6.413-6.607c0-3.765,2.599-6.632,6.413-6.632
			c4.275,0,6.34,3.596,6.097,7.458H163.229z M168.84,103.227c-0.315-1.749-1.068-2.672-2.745-2.672c-2.187,0-2.818,1.7-2.867,2.672
			H168.84z"/>
		<path fill="#C4281A" d="M174.428,93.51h3.449v17.345h-3.449V93.51z"/>
		<path fill="#C4281A" d="M184.971,98.296h2.526v2.308h-2.526v6.219c0,1.166,0.291,1.457,1.457,1.457
			c0.365,0,0.705-0.024,1.069-0.097v2.696c-0.583,0.097-1.336,0.121-2.017,0.121c-2.113,0-3.959-0.485-3.959-2.987v-7.409h-2.089
			v-2.308h2.089v-3.766h3.45V98.296z"/>
		<path fill="#C4281A" d="M191.991,105.414c0.097,2.187,1.166,3.183,3.085,3.183c1.384,0,2.502-0.851,2.721-1.628h3.036
			c-0.972,2.964-3.036,4.227-5.878,4.227c-3.959,0-6.413-2.721-6.413-6.607c0-3.765,2.599-6.632,6.413-6.632
			c4.275,0,6.34,3.596,6.097,7.458H191.991z M197.603,103.227c-0.316-1.749-1.069-2.672-2.745-2.672c-2.187,0-2.818,1.7-2.867,2.672
			H197.603z"/>
		<path fill="#C4281A" d="M203.093,98.296h3.28v2.332h0.048c0.632-1.579,2.332-2.673,4.008-2.673c0.243,0,0.535,0.049,0.753,0.122
			v3.206c-0.316-0.072-0.826-0.121-1.239-0.121c-2.526,0-3.401,1.821-3.401,4.032v5.66h-3.45V98.296z"/>
		<path fill="#C4281A" d="M219.661,93.51h9.352c3.109,0,5.077,2.162,5.077,4.786c0,2.04-0.826,3.57-2.745,4.348v0.049
			c1.871,0.486,2.405,2.308,2.526,4.057c0.073,1.094,0.049,3.134,0.729,4.105h-3.814c-0.461-1.093-0.413-2.77-0.607-4.154
			c-0.267-1.821-0.972-2.623-2.891-2.623h-3.813v6.777h-3.814V93.51z M223.475,101.357h4.178c1.701,0,2.624-0.729,2.624-2.478
			c0-1.677-0.923-2.405-2.624-2.405h-4.178V101.357z"/>
		<path fill="#C4281A" d="M239.678,105.414c0.097,2.187,1.166,3.183,3.085,3.183c1.384,0,2.502-0.851,2.721-1.628h3.036
			c-0.972,2.964-3.036,4.227-5.878,4.227c-3.959,0-6.413-2.721-6.413-6.607c0-3.765,2.599-6.632,6.413-6.632
			c4.275,0,6.34,3.596,6.097,7.458H239.678z M245.29,103.227c-0.316-1.749-1.069-2.672-2.745-2.672c-2.187,0-2.818,1.7-2.867,2.672
			H245.29z"/>
		<path fill="#C4281A" d="M253.452,106.774c0.024,1.506,1.288,2.113,2.648,2.113c0.996,0,2.259-0.389,2.259-1.604
			c0-1.044-1.433-1.408-3.911-1.943c-1.992-0.437-3.984-1.142-3.984-3.352c0-3.207,2.769-4.033,5.466-4.033
			c2.745,0,5.271,0.924,5.538,4.009h-3.279c-0.097-1.336-1.117-1.701-2.356-1.701c-0.777,0-1.919,0.146-1.919,1.166
			c0,1.239,1.943,1.409,3.911,1.871c2.016,0.461,3.984,1.19,3.984,3.522c0,3.304-2.867,4.372-5.733,4.372
			c-2.915,0-5.757-1.093-5.903-4.421H253.452z"/>
		<path fill="#C4281A" d="M266.667,105.414c0.097,2.187,1.166,3.183,3.085,3.183c1.384,0,2.502-0.851,2.721-1.628h3.036
			c-0.972,2.964-3.036,4.227-5.878,4.227c-3.959,0-6.413-2.721-6.413-6.607c0-3.765,2.599-6.632,6.413-6.632
			c4.275,0,6.34,3.596,6.097,7.458H266.667z M272.279,103.227c-0.316-1.749-1.069-2.672-2.745-2.672c-2.187,0-2.818,1.7-2.867,2.672
			H272.279z"/>
		<path fill="#C4281A" d="M277.623,102.159c0.194-3.231,3.085-4.203,5.903-4.203c2.502,0,5.515,0.56,5.515,3.571v6.534
			c0,1.142,0.121,2.284,0.437,2.794h-3.498c-0.122-0.389-0.219-0.802-0.243-1.215c-1.093,1.142-2.697,1.555-4.227,1.555
			c-2.38,0-4.275-1.19-4.275-3.765c0-2.843,2.138-3.522,4.275-3.814c2.113-0.315,4.081-0.243,4.081-1.651
			c0-1.482-1.02-1.701-2.235-1.701c-1.312,0-2.162,0.535-2.283,1.896H277.623z M285.591,104.709
			c-0.583,0.51-1.797,0.534-2.867,0.729c-1.068,0.219-2.04,0.583-2.04,1.846c0,1.288,0.996,1.604,2.113,1.604
			c2.696,0,2.793-2.138,2.793-2.891V104.709z"/>
		<path fill="#C4281A" d="M291.713,98.296h3.279v2.332h0.048c0.632-1.579,2.333-2.673,4.008-2.673c0.244,0,0.535,0.049,0.754,0.122
			v3.206c-0.316-0.072-0.826-0.121-1.238-0.121c-2.527,0-3.402,1.821-3.402,4.032v5.66h-3.449V98.296z"/>
	</g>
	<g>
		<path fill="#C4281A" d="M309.273,102.717c-0.219-1.409-1.117-2.162-2.551-2.162c-2.209,0-2.938,2.235-2.938,4.081
			c0,1.798,0.703,3.96,2.865,3.96c1.604,0,2.527-1.021,2.746-2.551h3.328c-0.438,3.328-2.746,5.149-6.049,5.149
			c-3.791,0-6.342-2.672-6.342-6.438c0-3.91,2.332-6.802,6.414-6.802c2.963,0,5.684,1.555,5.902,4.762H309.273z"/>
		<path fill="#C4281A" d="M314.668,93.51h3.449v6.535h0.072c0.875-1.409,2.381-2.09,3.668-2.09c3.668,0,4.592,2.065,4.592,5.175
			v7.725H323v-7.094c0-2.064-0.607-3.085-2.211-3.085c-1.871,0-2.672,1.045-2.672,3.596v6.583h-3.449V93.51z"/>
	</g>
	<g>
		<path fill="#C4281A" d="M352.01,103.852c0,5-2.953,7.436-7.902,7.436c-4.975,0-7.877-2.409-7.877-7.436V92.348h4.068v11.504
			c0,2.021,0.518,4.016,3.809,4.016c2.902,0,3.834-1.27,3.834-4.016V92.348h4.068V103.852z"/>
		<path fill="#C4281A" d="M355.121,97.452h3.498v1.866h0.078c0.932-1.503,2.539-2.229,4.094-2.229c3.912,0,4.896,2.202,4.896,5.519
			v8.239h-3.68v-7.565c0-2.202-0.646-3.291-2.357-3.291c-1.994,0-2.85,1.114-2.85,3.835v7.021h-3.68V97.452z"/>
		<path fill="#C4281A" d="M374.27,95.379h-3.678v-3.031h3.678V95.379z M370.592,97.452h3.678v13.396h-3.678V97.452z"/>
		<path fill="#C4281A" d="M381.836,97.452h2.695v2.462h-2.695v6.633c0,1.243,0.311,1.555,1.555,1.555
			c0.389,0,0.752-0.026,1.141-0.104v2.876c-0.623,0.104-1.426,0.129-2.152,0.129c-2.254,0-4.223-0.518-4.223-3.187v-7.902h-2.229
			v-2.462h2.229v-4.016h3.68V97.452z"/>
	</g>
	<g>
		<path d="M129.903,121.084c0.072-1.451,1.092-2.074,2.507-2.074c1.091,0,2.279,0.336,2.279,1.99v3.286
			c0,0.288,0.144,0.456,0.444,0.456c0.084,0,0.18-0.023,0.24-0.048v0.636c-0.168,0.036-0.288,0.048-0.492,0.048
			c-0.768,0-0.888-0.432-0.888-1.079h-0.024c-0.528,0.804-1.067,1.259-2.255,1.259c-1.139,0-2.075-0.563-2.075-1.811
			c0-1.739,1.691-1.799,3.322-1.991c0.624-0.072,0.971-0.156,0.971-0.84c0-1.02-0.731-1.271-1.619-1.271
			c-0.935,0-1.631,0.432-1.655,1.438H129.903z M133.933,121.997h-0.024c-0.096,0.18-0.432,0.239-0.636,0.275
			c-1.283,0.228-2.878,0.216-2.878,1.428c0,0.755,0.672,1.223,1.379,1.223c1.151,0,2.171-0.731,2.159-1.942V121.997z"/>
		<path d="M136.191,119.19h0.756v1.067h0.024c0.276-0.744,1.103-1.247,1.979-1.247c1.739,0,2.267,0.911,2.267,2.387v3.981h-0.756
			v-3.862c0-1.067-0.348-1.87-1.571-1.87c-1.2,0-1.919,0.911-1.943,2.122v3.61h-0.756V119.19z"/>
		<path d="M145.994,116.815h0.756v1.212h-0.756V116.815z M145.994,119.19h0.756v6.188h-0.756V119.19z"/>
		<path d="M148.19,119.19h0.756v1.067h0.024c0.276-0.744,1.104-1.247,1.979-1.247c1.739,0,2.267,0.911,2.267,2.387v3.981h-0.756
			v-3.862c0-1.067-0.348-1.87-1.571-1.87c-1.199,0-1.919,0.911-1.943,2.122v3.61h-0.756V119.19z"/>
		<path d="M154.658,116.815h0.756v1.212h-0.756V116.815z M154.658,119.19h0.756v6.188h-0.756V119.19z"/>
		<path d="M158.065,119.19h1.259v0.636h-1.259V124c0,0.491,0.072,0.779,0.612,0.815c0.216,0,0.432-0.013,0.647-0.036v0.647
			c-0.228,0-0.444,0.024-0.671,0.024c-1.008,0-1.355-0.336-1.343-1.392v-4.233h-1.08v-0.636h1.08v-1.859h0.755V119.19z"/>
		<path d="M160.43,116.815h0.756v1.212h-0.756V116.815z M160.43,119.19h0.756v6.188h-0.756V119.19z"/>
		<path d="M162.566,121.084c0.072-1.451,1.092-2.074,2.507-2.074c1.091,0,2.279,0.336,2.279,1.99v3.286
			c0,0.288,0.144,0.456,0.444,0.456c0.084,0,0.18-0.023,0.24-0.048v0.636c-0.168,0.036-0.288,0.048-0.492,0.048
			c-0.768,0-0.888-0.432-0.888-1.079h-0.024c-0.528,0.804-1.067,1.259-2.255,1.259c-1.139,0-2.075-0.563-2.075-1.811
			c0-1.739,1.691-1.799,3.322-1.991c0.624-0.072,0.971-0.156,0.971-0.84c0-1.02-0.731-1.271-1.619-1.271
			c-0.935,0-1.631,0.432-1.655,1.438H162.566z M166.596,121.997h-0.024c-0.096,0.18-0.432,0.239-0.636,0.275
			c-1.283,0.228-2.878,0.216-2.878,1.428c0,0.755,0.672,1.223,1.379,1.223c1.151,0,2.171-0.731,2.159-1.942V121.997z"/>
		<path d="M170.065,119.19h1.259v0.636h-1.259V124c0,0.491,0.072,0.779,0.612,0.815c0.216,0,0.432-0.013,0.647-0.036v0.647
			c-0.228,0-0.444,0.024-0.671,0.024c-1.008,0-1.355-0.336-1.343-1.392v-4.233h-1.08v-0.636h1.08v-1.859h0.755V119.19z"/>
		<path d="M172.429,116.815h0.756v1.212h-0.756V116.815z M172.429,119.19h0.756v6.188h-0.756V119.19z"/>
		<path d="M173.942,119.19h0.84l1.943,5.433h0.024l1.919-5.433h0.779l-2.314,6.188h-0.804L173.942,119.19z"/>
		<path d="M180.637,122.488c0.012,1.104,0.587,2.435,2.039,2.435c1.104,0,1.703-0.647,1.943-1.583h0.756
			c-0.324,1.403-1.14,2.219-2.699,2.219c-1.967,0-2.794-1.511-2.794-3.274c0-1.631,0.828-3.273,2.794-3.273
			c1.991,0,2.783,1.738,2.723,3.478H180.637z M184.643,121.852c-0.036-1.139-0.743-2.206-1.967-2.206
			c-1.235,0-1.919,1.079-2.039,2.206H184.643z"/>
		<path d="M195.298,122.284c0,1.775-1.032,3.274-2.927,3.274c-1.895,0-2.926-1.499-2.926-3.274c0-1.774,1.032-3.273,2.926-3.273
			C194.267,119.01,195.298,120.509,195.298,122.284z M190.201,122.284c0,1.319,0.719,2.639,2.17,2.639s2.171-1.319,2.171-2.639
			s-0.72-2.638-2.171-2.638S190.201,120.964,190.201,122.284z"/>
		<path d="M198.816,119.826h-1.224v5.553h-0.755v-5.553h-1.056v-0.636h1.056v-0.563c-0.012-1.067,0.288-1.812,1.499-1.812
			c0.216,0,0.396,0.012,0.636,0.048v0.648c-0.204-0.036-0.372-0.061-0.552-0.061c-0.839,0-0.815,0.527-0.828,1.199v0.54h1.224
			V119.826z"/>
		<path d="M204.072,119.19h1.259v0.636h-1.259V124c0,0.491,0.072,0.779,0.612,0.815c0.216,0,0.432-0.013,0.647-0.036v0.647
			c-0.228,0-0.444,0.024-0.671,0.024c-1.008,0-1.355-0.336-1.343-1.392v-4.233h-1.08v-0.636h1.08v-1.859h0.755V119.19z"/>
		<path d="M206.413,116.815h0.756v3.442h0.024c0.276-0.744,1.103-1.247,1.979-1.247c1.739,0,2.267,0.911,2.267,2.387v3.981h-0.756
			v-3.862c0-1.067-0.348-1.87-1.571-1.87c-1.2,0-1.919,0.911-1.943,2.122v3.61h-0.756V116.815z"/>
		<path d="M213.312,122.488c0.012,1.104,0.587,2.435,2.039,2.435c1.104,0,1.703-0.647,1.943-1.583h0.756
			c-0.324,1.403-1.14,2.219-2.699,2.219c-1.967,0-2.794-1.511-2.794-3.274c0-1.631,0.828-3.273,2.794-3.273
			c1.991,0,2.783,1.738,2.723,3.478H213.312z M217.317,121.852c-0.036-1.139-0.743-2.206-1.967-2.206
			c-1.235,0-1.919,1.079-2.039,2.206H217.317z"/>
	</g>
	<g>
		<path d="M222.544,116.815h4.03c1.631,0,2.734,0.528,2.734,2.123c0,0.84-0.42,1.427-1.163,1.787c1.043,0.3,1.571,1.104,1.571,2.171
			c0,1.739-1.475,2.482-3.022,2.482h-4.149V116.815z M224.427,120.281h1.907c0.66,0,1.151-0.3,1.151-1.019
			c0-0.816-0.624-0.983-1.295-0.983h-1.763V120.281z M224.427,123.916h2.015c0.743,0,1.391-0.24,1.391-1.128
			c0-0.875-0.552-1.223-1.355-1.223h-2.051V123.916z"/>
		<path d="M232.215,122.692c0.048,1.079,0.576,1.571,1.523,1.571c0.684,0,1.235-0.42,1.343-0.804h1.499
			c-0.48,1.463-1.499,2.087-2.902,2.087c-1.955,0-3.167-1.344-3.167-3.263c0-1.858,1.284-3.273,3.167-3.273
			c2.111,0,3.13,1.774,3.01,3.682H232.215z M234.985,121.613c-0.156-0.864-0.528-1.319-1.355-1.319c-1.08,0-1.392,0.839-1.416,1.319
			H234.985z"/>
		<path d="M237.699,119.178h1.619v0.863h0.036c0.432-0.695,1.175-1.031,1.895-1.031c1.811,0,2.267,1.02,2.267,2.555v3.813h-1.703
			v-3.502c0-1.02-0.3-1.523-1.091-1.523c-0.923,0-1.319,0.516-1.319,1.775v3.25h-1.703V119.178z"/>
		<path d="M246.218,122.692c0.048,1.079,0.576,1.571,1.523,1.571c0.684,0,1.235-0.42,1.343-0.804h1.499
			c-0.48,1.463-1.499,2.087-2.902,2.087c-1.955,0-3.167-1.344-3.167-3.263c0-1.858,1.283-3.273,3.167-3.273
			c2.111,0,3.13,1.774,3.01,3.682H246.218z M248.989,121.613c-0.156-0.864-0.528-1.319-1.355-1.319c-1.08,0-1.392,0.839-1.416,1.319
			H248.989z"/>
		<path d="M251.751,116.815h1.703v8.563h-1.703V116.815z"/>
		<path d="M260.616,125.378h-1.619v-0.863h-0.036c-0.432,0.695-1.176,1.031-1.895,1.031c-1.811,0-2.267-1.02-2.267-2.555v-3.813
			h1.703v3.502c0,1.02,0.3,1.522,1.091,1.522c0.924,0,1.319-0.516,1.319-1.774v-3.25h1.703V125.378z"/>
		<path d="M263.498,122.117l-2.039-2.938h1.943l1.091,1.619l1.08-1.619h1.883l-2.039,2.902l2.291,3.298h-1.943l-1.295-1.955
			l-1.295,1.955h-1.907L263.498,122.117z"/>
		<path d="M271.874,116.815h4.617c1.535,0,2.507,1.067,2.507,2.363c0,1.007-0.408,1.763-1.355,2.146v0.024
			c0.924,0.239,1.188,1.139,1.248,2.002c0.036,0.54,0.024,1.548,0.36,2.027h-1.883c-0.228-0.54-0.204-1.367-0.3-2.051
			c-0.132-0.899-0.479-1.295-1.427-1.295h-1.883v3.346h-1.883V116.815z M273.757,120.689h2.063c0.839,0,1.295-0.359,1.295-1.224
			c0-0.827-0.456-1.187-1.295-1.187h-2.063V120.689z"/>
		<path d="M281.761,122.692c0.048,1.079,0.576,1.571,1.523,1.571c0.684,0,1.235-0.42,1.343-0.804h1.499
			c-0.48,1.463-1.499,2.087-2.902,2.087c-1.955,0-3.167-1.344-3.167-3.263c0-1.858,1.283-3.273,3.167-3.273
			c2.111,0,3.13,1.774,3.01,3.682H281.761z M284.532,121.613c-0.156-0.864-0.528-1.319-1.355-1.319c-1.08,0-1.392,0.839-1.416,1.319
			H284.532z"/>
		<path d="M291.671,124.586h-0.024c-0.396,0.672-1.091,0.96-1.883,0.96c-1.871,0-2.782-1.607-2.782-3.322
			c0-1.667,0.923-3.214,2.747-3.214c0.731,0,1.451,0.312,1.835,0.923h0.024v-3.118h1.703v8.563h-1.619V124.586z M290.184,120.293
			c-1.115,0-1.499,0.959-1.499,1.979c0,0.972,0.444,1.991,1.499,1.991c1.127,0,1.463-0.983,1.463-2.003
			C291.647,121.252,291.288,120.293,290.184,120.293z"/>
		<path d="M303.803,119.694c-0.121-0.852-0.936-1.499-1.871-1.499c-1.691,0-2.326,1.438-2.326,2.938
			c0,1.428,0.635,2.867,2.326,2.867c1.15,0,1.799-0.792,1.943-1.919h1.822c-0.191,2.135-1.666,3.502-3.766,3.502
			c-2.65,0-4.209-1.979-4.209-4.45c0-2.542,1.559-4.521,4.209-4.521c1.883,0,3.467,1.104,3.693,3.083H303.803z"/>
		<path d="M306.805,119.178h1.619v1.151h0.025c0.311-0.78,1.15-1.319,1.979-1.319c0.119,0,0.264,0.023,0.371,0.06v1.583
			c-0.156-0.036-0.408-0.06-0.611-0.06c-1.248,0-1.68,0.899-1.68,1.99v2.795h-1.703V119.178z"/>
	</g>
	<g>
		<path d="M314.266,119.01c1.955,0,3.213,1.295,3.213,3.273c0,1.968-1.258,3.263-3.213,3.263c-1.943,0-3.203-1.295-3.203-3.263
			C311.062,120.305,312.322,119.01,314.266,119.01z M314.266,124.263c1.162,0,1.51-0.996,1.51-1.979c0-0.995-0.348-1.99-1.51-1.99
			c-1.152,0-1.5,0.995-1.5,1.99C312.766,123.267,313.113,124.263,314.266,124.263z"/>
		<path d="M319.906,123.364c0.012,0.743,0.635,1.043,1.307,1.043c0.492,0,1.115-0.191,1.115-0.791c0-0.516-0.707-0.696-1.93-0.96
			c-0.984-0.216-1.967-0.563-1.967-1.655c0-1.583,1.367-1.99,2.697-1.99c1.355,0,2.604,0.455,2.734,1.979h-1.619
			c-0.047-0.659-0.551-0.84-1.162-0.84c-0.385,0-0.949,0.072-0.949,0.576c0,0.611,0.961,0.695,1.932,0.924
			c0.996,0.228,1.967,0.587,1.967,1.738c0,1.632-1.414,2.159-2.83,2.159c-1.439,0-2.842-0.54-2.914-2.183H319.906z"/>
		<path d="M326.35,123.364c0.012,0.743,0.635,1.043,1.307,1.043c0.492,0,1.115-0.191,1.115-0.791c0-0.516-0.707-0.696-1.93-0.96
			c-0.984-0.216-1.967-0.563-1.967-1.655c0-1.583,1.367-1.99,2.697-1.99c1.355,0,2.604,0.455,2.734,1.979h-1.619
			c-0.047-0.659-0.551-0.84-1.162-0.84c-0.385,0-0.949,0.072-0.949,0.576c0,0.611,0.961,0.695,1.932,0.924
			c0.996,0.228,1.967,0.587,1.967,1.738c0,1.632-1.414,2.159-2.83,2.159c-1.439,0-2.842-0.54-2.914-2.183H326.35z"/>
		<path d="M336.273,122.536c0,1.14,0.887,1.583,1.895,1.583c0.66,0,1.668-0.191,1.668-1.067c0-0.923-1.283-1.079-2.543-1.415
			c-1.271-0.336-2.555-0.827-2.555-2.435c0-1.751,1.654-2.591,3.203-2.591c1.787,0,3.43,0.78,3.43,2.759h-1.824
			c-0.059-1.031-0.791-1.295-1.689-1.295c-0.6,0-1.297,0.252-1.297,0.972c0,0.659,0.408,0.743,2.555,1.295
			c0.625,0.156,2.543,0.552,2.543,2.494c0,1.571-1.234,2.747-3.562,2.747c-1.895,0-3.67-0.936-3.645-3.047H336.273z"/>
		<path d="M345.607,119.01c1.955,0,3.215,1.295,3.215,3.273c0,1.968-1.26,3.263-3.215,3.263c-1.943,0-3.201-1.295-3.201-3.263
			C342.406,120.305,343.664,119.01,345.607,119.01z M345.607,124.263c1.164,0,1.512-0.996,1.512-1.979
			c0-0.995-0.348-1.99-1.512-1.99c-1.15,0-1.498,0.995-1.498,1.99C344.109,123.267,344.457,124.263,345.607,124.263z"/>
		<path d="M354.15,121.361c-0.107-0.696-0.551-1.067-1.258-1.067c-1.092,0-1.451,1.104-1.451,2.015c0,0.888,0.348,1.955,1.414,1.955
			c0.791,0,1.248-0.504,1.355-1.26h1.643c-0.215,1.644-1.355,2.543-2.986,2.543c-1.871,0-3.129-1.319-3.129-3.179
			c0-1.931,1.15-3.357,3.166-3.357c1.463,0,2.807,0.768,2.914,2.351H354.15z"/>
		<path d="M358.568,118.218h-1.703v-1.403h1.703V118.218z M356.865,119.178h1.703v6.2h-1.703V119.178z"/>
		<path d="M361.316,122.692c0.047,1.079,0.576,1.571,1.523,1.571c0.684,0,1.234-0.42,1.342-0.804h1.5
			c-0.48,1.463-1.5,2.087-2.902,2.087c-1.955,0-3.166-1.344-3.166-3.263c0-1.858,1.283-3.273,3.166-3.273
			c2.111,0,3.131,1.774,3.01,3.682H361.316z M364.086,121.613c-0.156-0.864-0.527-1.319-1.355-1.319
			c-1.078,0-1.391,0.839-1.414,1.319H364.086z"/>
		<path d="M368.959,119.178h1.248v1.139h-1.248v3.07c0,0.576,0.145,0.72,0.721,0.72c0.18,0,0.348-0.012,0.527-0.048v1.331
			c-0.289,0.048-0.66,0.061-0.996,0.061c-1.043,0-1.955-0.24-1.955-1.476v-3.658h-1.031v-1.139h1.031v-1.859h1.703V119.178z"/>
		<path d="M372.775,118.218h-1.703v-1.403h1.703V118.218z M371.072,119.178h1.703v6.2h-1.703V119.178z"/>
		<path d="M375.523,122.692c0.049,1.079,0.576,1.571,1.523,1.571c0.684,0,1.236-0.42,1.344-0.804h1.498
			c-0.479,1.463-1.498,2.087-2.902,2.087c-1.953,0-3.166-1.344-3.166-3.263c0-1.858,1.283-3.273,3.166-3.273
			c2.111,0,3.131,1.774,3.012,3.682H375.523z M378.295,121.613c-0.156-0.864-0.527-1.319-1.355-1.319
			c-1.08,0-1.391,0.839-1.416,1.319H378.295z"/>
		<path d="M382.328,123.364c0.012,0.743,0.635,1.043,1.307,1.043c0.492,0,1.115-0.191,1.115-0.791c0-0.516-0.707-0.696-1.93-0.96
			c-0.984-0.216-1.967-0.563-1.967-1.655c0-1.583,1.367-1.99,2.697-1.99c1.355,0,2.604,0.455,2.734,1.979h-1.619
			c-0.047-0.659-0.551-0.84-1.162-0.84c-0.385,0-0.949,0.072-0.949,0.576c0,0.611,0.961,0.695,1.932,0.924
			c0.996,0.228,1.967,0.587,1.967,1.738c0,1.632-1.414,2.159-2.83,2.159c-1.439,0-2.842-0.54-2.914-2.183H382.328z"/>
	</g>
	
		<line fill="none" stroke="#000000" stroke-linecap="round" stroke-linejoin="round" stroke-dasharray="0,2.0041" x1="131.273" y1="81.03" x2="557.148" y2="81.03"/>
	<path fill="none" stroke="#000000" stroke-linecap="round" stroke-linejoin="round" d="M129.269,81.03L129.269,81.03 M558.15,81.03
		L558.15,81.03"/>
</g>
</svg>
